<svg xmlns="http://www.w3.org/2000/svg" viewBox="0 0 940.89 261.9"><defs><style>.cls-1{fill:#dd1717;}.cls-2{fill:#540e0e;}.cls-3{fill:#a50808;}.cls-4{fill:#20c0e5;}.cls-5{fill:#3cb9ce;}.cls-6{fill:#62ce29;}.cls-7{fill:#5aaa26;}.cls-8{fill:#0d04b2;}.cls-9{fill:#08089b;}.cls-10{fill:#0a0a8e;}.cls-11{fill:#efdb22;}.cls-12{fill:#dbaa21;}</style></defs><title>Asset 3</title><g id="Layer_2" data-name="Layer 2"><g id="Layer_1-2" data-name="Layer 1"><path d="M190.88,183.6q5.37,25.92-5.06,40-10,13.6-29.56,24.51-21.19,12-32.41,8.22A53.27,53.27,0,0,1,111,259.8q-25.62,4.27-56.76-.16-26.24-3.79-45.06-12A15.28,15.28,0,0,0,9.7,250q-6.33-1.11-7.43-5.54L1.32,244a2.44,2.44,0,0,1-1.27-2.85,2.42,2.42,0,0,1,2.06-2.21c.1-2.21.37-5.06.79-8.54.63-4.63,1-7.48,1.11-8.53q.47-5.38.94-17.08.32-11.22,1-17.23.79-7,9.49-77.47,3-24,5.06-36.84,4.43-27.82,3.95-34.78a2.28,2.28,0,0,1,1.9-2.69,2.15,2.15,0,0,1,.63-1.58,3.67,3.67,0,0,1,.79-1.58q8.53-7.91,24.67-16.76Q73.57,4.47,78.47,1.15a4.24,4.24,0,0,1,1-.48A2.41,2.41,0,0,1,82.58.51q3.33,2.22,11.86,4.27A114.86,114.86,0,0,1,106.14,8q2.69.94,13.12,4.11,8.07,2.37,13.12,4.11,33.21,10.91,43,23.08,11.69,14.39,14.07,38.42a188.81,188.81,0,0,1,.79,20.87q-.48,16.6-1.74,21.34a2.24,2.24,0,0,1-2.37,1.9,49.18,49.18,0,0,1-16.6,21.66c.21-.11.16-.06-.16.15-.53-.31.1.11,1.9,1.27a2.43,2.43,0,0,1,1.26,1.9c.42.53,1,1.21,1.74,2.05,1.16,1.37,2.11,2.59,2.85,3.64a73,73,0,0,1,6.16,9.8A82.48,82.48,0,0,1,190.88,183.6Z"/><path class="cls-1" d="M103,255.38q17.07-1.9,26.08-7.44a45.12,45.12,0,0,0,17.08-19.76,43.21,43.21,0,0,0,3.48-26.09,141.81,141.81,0,0,0-7.12-24.5q-4.91-13-8.54-18.18a2.16,2.16,0,0,1,.32-3.33,2.93,2.93,0,0,1,3.48-.47l.31-.32a85.94,85.94,0,0,0,6.49-8.85A69.34,69.34,0,0,0,153.73,124q3.47-16.44-.48-29.56-5.06-16-13.28-23.72-8.7-8.22-23.4-13.12-11.7-3.8-30.19-8.54c-1.8-.42-4.43-1-7.91-1.74l-8.06-1.89L56.34,41.78A65,65,0,0,0,49.06,41q-5.06-.48-7.43-.79-8.85-1.26-11.7-1.42a26.34,26.34,0,0,1,.16,4.9q0-.63-4.74,33.67-4,29.25-5.06,38.89-.79,6.33-4.9,38.74-3,23.72-4.43,38.89-.46,4.59-.79,15.34-.31,9.79-.95,15.33c-.73,5.8-1.16,9.6-1.26,11.39a5.32,5.32,0,0,0-.16,1.58,10.9,10.9,0,0,1-.31,1.74,2.19,2.19,0,0,1,1.1,2.05,79.65,79.65,0,0,0,7.91,3.32A194.22,194.22,0,0,0,74.36,256,179.71,179.71,0,0,0,103,255.38Z"/><path class="cls-1" d="M81,6.05q-5.69,3.8-23.4,13.28Q42.74,27.24,35,33.56c1.16.21,2.74.47,4.75.79q3.32.48,4.74.63,1.26.17,7.91.79,4.89.48,8.06,1.11,25,6.16,34.62,8.69,23.25,6.49,29.09,8.7,16.29,6.65,24,17.39,19.6,27,9.17,60.24a72,72,0,0,1-8.06,17.39q12.64-7.12,14.55-8.38,13.43-9.65,18-23.88a2.45,2.45,0,0,1,1.9-1.73q.63-3.8.94-18.82a140.65,140.65,0,0,0-.94-19.92q-2.85-24.51-15-36.36-9.5-9.5-44.11-20.71-14.23-4.75-24.83-7.75Q82.26,6.85,81,6.05Z"/><path d="M69.46,163.68q16.13,1.26,26.24,15.8,9.81,14.09,7.12,30.2Q100.6,223,86.69,226q-6,1.26-25.29.47c-2.22-.1-3.11-1.31-2.69-3.63s.84-8.43,1.26-18q.48-11.07,3.17-17.71a2.38,2.38,0,0,1,1.26-1.42c.11-2,.47-5.16,1.11-9.49s1-7.43,1.26-9.64C66.88,164.52,67.77,163.57,69.46,163.68Z"/><path class="cls-2" d="M67.41,191.66q-1.75,5.68-2.38,21.5,1.74-1.57,9-6.8,19.29-13.91,21.19-16-7-17.87-23.24-20.71-2.22,20.56-2.21,19.45A2.51,2.51,0,0,1,67.41,191.66Z"/><path class="cls-3" d="M97.28,209.21A32.84,32.84,0,0,0,97,196.4q-2.22,2.06-16.13,11.86a132.33,132.33,0,0,0-10.59,8.06c-2.74,2.32-4.32,3.91-4.74,4.74q13.76,1.11,19.44-.15Q95.71,218.69,97.28,209.21Z"/><path d="M79.42,81.15q3.48,2.2,15.34,4.58,10.11,1.9,14.22,6.48,8.55,9.18,6.49,25.14-2.22,16.92-16,22.93a37.29,37.29,0,0,1-14.39,3.16,34,34,0,0,1-8.38-1.11,28.73,28.73,0,0,0-8.22-.79c-1.58,0-2.48-.68-2.69-2.06q.32,1.59,1.74-30.35Q68.51,89.38,71,83.36a2.13,2.13,0,0,1,2.06-1.42,3,3,0,0,1,2.21,1A2.88,2.88,0,0,1,76.73,81,2.74,2.74,0,0,1,79.42,81.15Z"/><path class="cls-2" d="M73.1,110.24c-.22,1.89-.58,5-1.11,9.32q-.8,6-1.11,9.33,4.59-4.11,18.66-11.54,12.48-6.48,17.55-13a2.39,2.39,0,0,1,1.89-1q-2.06-7.44-7.58-9.8-3.33-1.59-12.49-3.48-8.22-1.57-12.34-4.27a.49.49,0,0,1-.47-.32,1.35,1.35,0,0,1-.16.64Q74.68,89,73.1,110.24Z"/><path class="cls-3" d="M110.09,114.35a23.67,23.67,0,0,0-.16-4.74q-5.37,6.31-19,13.43Q75.63,131,71.67,136c.85.1,2.69.47,5.54,1.1a24.48,24.48,0,0,0,5.53.79q9,0,13.91-2.37Q109.78,128.9,110.09,114.35Z"/><path class="cls-1" d="M182,219.17q9.32-15.18,2.21-39.53a74.72,74.72,0,0,0-9-20.08,52.48,52.48,0,0,0-6.17-8.22,3.64,3.64,0,0,0-1.1-1,18,18,0,0,0-2.06.64c-1.05-1.9-1.74-3.17-2.05-3.8Q145,158.62,145.19,158.46a29.92,29.92,0,0,1-3.48.95H140.6q4.11,6.94,9.33,22.6,9.81,29.57,1.58,48.07a49.75,49.75,0,0,1-18.65,21.66q8.69-.94,23.24-10Q175.54,229.92,182,219.17Z"/><path d="M359.26,167.47q-2.53,7.59-13,50.43v.16a2.31,2.31,0,0,1-1.74,2.85q1.57-.48-45.21,15.49-1.27.48-21.19,5.85-5.68,2.22-11.54,4.11a37.24,37.24,0,0,1-4.11,1.42,21.5,21.5,0,0,0-2.69,1.27,2.38,2.38,0,0,1-2.37,0c-.95.21-1.79.42-2.53.63q-5.53.94-8.22,0a2,2,0,0,0-.48-.31,2.08,2.08,0,0,1-3-.79q-1.43-2.22-8.7-6.17-2.83-1.59-14.86-7.27-8.06-4-11.85-6.33l-.16.16-.95.79a2.49,2.49,0,0,1-4.59-1.1c0-1.69.06-3.38.16-5.07a5.89,5.89,0,0,1-.31-1.89,2.13,2.13,0,0,1,.63-1.58q.48-4.59,2.69-17.24a225,225,0,0,0,2.37-28.14q.31-10.44.63-29.25.15-20.39.48-29.09.63-23.87.47-23.08.32-2.68,2.37-15.49a165.05,165.05,0,0,0,2.06-17.4q.47-8.85-1.43-11.38l-1.89-.95a2.14,2.14,0,0,1-1-3,2.3,2.3,0,0,1,2.84-1.42c.11,0,1,.26,2.69.79a28,28,0,0,1,2.53-1.27,3.81,3.81,0,0,0,.95-.47q-.16-2.68,2.37-2.37,7,.8,22.13-4.27,15.5-5.22,23.09-4.9a24.57,24.57,0,0,1,2.53.15,3.09,3.09,0,0,1,.94.16c1.16.22,2.32.48,3.48.79A30.51,30.51,0,0,0,275,34.82q.47.33,16.28,5.06,14.24,4.42,20.08,10.91a2.29,2.29,0,0,1,0,3.16c.95.21,1.79.37,2.53.48a90,90,0,0,0-5.37,20.08,2.69,2.69,0,0,1,.15.79,91.85,91.85,0,0,1-2.21,18q-3.31,15.18-3.64,18-1.1,7.75-3.16,20.71c-1.68,10.55-2.79,17.39-3.32,20.56a40.46,40.46,0,0,1-.63,4.58,1.73,1.73,0,0,1,.47-.31q2.22-1.42,22.3-6.33c.63-2.21,1.79-2.69,3.47-1.42q5.7,4.27,16.76,8.38,14.07,5.22,17.71,7a2.78,2.78,0,0,1,2.21.64c.64.63.95,1,.95,1S359.47,166.52,359.26,167.47Z"/><path class="cls-4" d="M243.84,242.41q.16-16.75,3.64-42.53,4.74-36.52,5.38-42.53,4.74-51.37,4.58-50.12,3.31-20.24,3.32-20.39Q262,75.92,260,69.6q-6-1.89-17.08-6.48-13.42-5.68-24.66-11.06a21.64,21.64,0,0,1,.32,4.11,115.35,115.35,0,0,1-1.43,17.07c-.31,1.9-.73,4.74-1.26,8.54s-1.11,6.64-1.42,8.54q-.33,2.52-.79,20.71-.17,9.33-.48,29.72-.31,19.44-.63,29.88-.48,19.45-1.74,28.46-3.65,24.51-3.48,23.24c.32.32.63.64,1,.95a33.48,33.48,0,0,0,4.43,2.85q3.31,1.74,13.59,6.79,8.86,4.11,13.13,6.64A32.68,32.68,0,0,1,243.84,242.41Z"/><path class="cls-4" d="M223.45,46.21a18.52,18.52,0,0,0-3.64,1.1q10.13,4.9,22,10.12,10.28,4.43,17.7,7c.74.21,1.53.42,2.38.63l.95.32c1.05.31,2.05.58,3,.79a7.46,7.46,0,0,0,2.05.31,1.41,1.41,0,0,0,.64-.16,2,2,0,0,1,2.05-.15q37.63-14.71,35.57-13.28l-.79-.32,1.11.16q-5.54-5.22-19-8.85Q273.09,40,267.87,36.25a23.08,23.08,0,0,0-3.79-.32q-7,0-19.76,4.58-13,4.76-19.77,4.91l-.31.47Z"/><path class="cls-4" d="M341.55,216.64q9.79-40,10.91-43.64-8.55,2.7-34,9-13.29,3.17-20.08,4.59-7.59,1.43-9.17,0c-.85.42-1.53.74-2.06,1q.31-2.22,2.06-16.76,1.09-10.12,2-16.76,1-6,3.32-20.71,2.06-13.12,3.17-20.71.47-3,3.63-18.5a95.85,95.85,0,0,0,2.37-18.81c-.42.1-.53.15-.31.15a118,118,0,0,1,3.95-17.54q-6.33,3.95-18.34,7.43-14.55,4.11-19,6.16a2.63,2.63,0,0,1-2.37-.16A9.27,9.27,0,0,1,265.5,71q1.9,8.39-2.68,34-1,4.74-5.06,51.22-.64,7.59-5.38,43.48-3.63,26.57-3.64,43.48a2.09,2.09,0,0,1-.79,1.74q1.91.8,7-.32a51.22,51.22,0,0,0,5.85-1.42,100.45,100.45,0,0,1,15.34-5.37c.84-.32,1.21-.48,1.1-.48-.31-.1-.26,0,.16.16q17.55-4.74,20.71-5.85,39.21-13.59,43.48-15Z"/><path class="cls-5" d="M298.54,161.14c-1.37.85-2.42.53-3.16-.94q-.15,1.1-2.69,22.45c.43-.11.9-.21,1.43-.32q3-.48,7.11-1.42,8.22-1.74,19.61-4.59,23.71-5.85,31.46-8.38-3.17-1.58-15.65-6.16a74.49,74.49,0,0,1-15.18-7l-.16.16-22.92,6.32Z"/><g id="O"><path d="M521.15,119.09q10.9,37.16,12.49,50,3.32,29.73-11.7,48.54-17.4,21.81-44,20.55a17.66,17.66,0,0,0-2.37-.16q-17.4-.31-24,0-24.19,1.59-28.15,1-20.24-3.48-34-23.24-14.7-21.18-20.55-50.59-6.48-32.88,3.16-61.66,1.43-4.43,5.54-14.39a68.13,68.13,0,0,1,5.06-10.43Q389,69,403.05,65.81q18.18-3.95,28.62-4.43Q457.13,60.44,463,59a2.37,2.37,0,0,1,2.53,1,2.76,2.76,0,0,1,.32,2.53,2.45,2.45,0,0,1,1.74,1.11q4.89-3.16,15.33.16a43.83,43.83,0,0,1,16.76,8.85,41,41,0,0,1,12,17.39Q516.09,102.18,521.15,119.09Zm-70.83,26.56q.17,17.23,5.06,28.93a44.27,44.27,0,0,0,8.06,13.12q8.38-3.47,10.12-15.8,1.26-8.07-2.05-23.09-6.17-27.83-18.66-25.45a2.08,2.08,0,0,1-1.11,0c-.21.84-.42,1.74-.63,2.69Q450.17,132.05,450.32,145.65Z"/><path class="cls-6" d="M449.06,233.4q3.15-.32,7.11-.32a74.81,74.81,0,0,1-23.24-15.49,77.46,77.46,0,0,1-15-21,134.78,134.78,0,0,1-10-25,100.21,100.21,0,0,1-2.69-31q.8-16,3-24.5Q418.7,78,445.89,65.81q-19.29.63-22.92,1.11a155.4,155.4,0,0,0-19.76,4q-11.07,2.68-15.34,8.69-5.53,7.75-11.06,25.14a108.85,108.85,0,0,0-5.7,32.1q-.47,30.34,13.44,60.23,13.27,28.62,32.73,35.26Q425.65,235.14,449.06,233.4Z"/><path class="cls-6" d="M482.73,233.24a1.47,1.47,0,0,0-.63-.16H475q-17.24-1.74-32.89-13.91Q424.7,205.58,413.8,174q-4.43-13.12-3.79-32.09.47-15.35,3.16-25.3,6.16-22.77,22.29-37.78,13.76-13,30.2-11.39,1.57,2.85,3.95.63,1.89-1.89,8.54-.47a42,42,0,0,1,10.11,3.32,35.08,35.08,0,0,1,16.92,16.44q1.57,3,5.22,14.07,2.21,6.5,5.22,16.45,5.68,19,9.17,30.83,7.9,27.66,2.05,48.69a47.72,47.72,0,0,1-13.12,22A49.82,49.82,0,0,1,491.11,232,55.53,55.53,0,0,1,482.73,233.24Zm-32.41-87.59q.17,17.23,5.06,28.93a44.27,44.27,0,0,0,8.06,13.12q8.38-3.47,10.12-15.8,1.26-8.07-2.05-23.09-6.17-27.83-18.66-25.45a2.08,2.08,0,0,1-1.11,0c-.21.84-.42,1.74-.63,2.69Q450.17,132.05,450.32,145.65Z"/><path d="M501.7,147.23A64.18,64.18,0,0,1,505.34,173q-1.27,15-10.75,22.77a21,21,0,0,1-16.6,4.74,28.4,28.4,0,0,1-16-7.43,7.4,7.4,0,0,1-1.26.16,2.48,2.48,0,0,1-2.06-1.42,2.4,2.4,0,0,1-.16-2.22q-13-15.33-13.12-46.95,0-13.29,1.11-19,2.21-11.24,10.12-14.71a2.77,2.77,0,0,1,1.58-.16q5.37-4.57,13.44-3.32a21.72,21.72,0,0,1,12.48,6.64q5.07,5.39,10.28,16.92Q499.49,140.75,501.7,147.23Zm-51.38-1.58q.17,17.23,5.06,28.93a44.27,44.27,0,0,0,8.06,13.12q8.38-3.47,10.12-15.8,1.26-8.07-2.05-23.09-6.17-27.83-18.66-25.45a2.08,2.08,0,0,1-1.11,0c-.21.84-.42,1.74-.63,2.69Q450.17,132.05,450.32,145.65Z"/><path class="cls-7" d="M500.44,172.06q.94-13.12-5.38-28.94-4.43-10.76-6.32-14.86-4.42-8.85-7.43-12a18.7,18.7,0,0,0-9.8-5.69q-6.33-1.58-10.44,2.22a2.1,2.1,0,0,1-2.37.63,11.71,11.71,0,0,0-5.06,5.06q16.29-1.11,22.77,29.72,4.26,20.55.79,28.93-4.11,10.13-10,14.07a19.47,19.47,0,0,0,3.48,2.06q10.27,5.22,18.34.47Q499.49,187.71,500.44,172.06Z"/></g><path d="M932.21,27.39A2,2,0,0,1,933.48,29q2.21,7.91-9.65,26.88-2.69,4.27-11.22,16.6-7.12,10.44-10.76,16.92-10.27,18-15.17,27-4.11,7.91-5.38,10.28c-1.58,2.84-2.69,4.43-3.32,4.74a2.8,2.8,0,0,1-1.26.32,2.37,2.37,0,0,1,1.11,3.48c.2-.53.52-.48.94.15a28.47,28.47,0,0,0,1.74,3q2.54,3.8,6.48,8.85,5.37,7,15.18,18.82,8.37,10.11,13.76,18,17.7,25.45,24.18,32.25a2.12,2.12,0,0,1,.64,2.37,2.83,2.83,0,0,1-1.74,1.74q-7,8.55-10.91,14.08-4,5.69-6.17,9.17A26,26,0,0,0,920,247a3.57,3.57,0,0,0-.48.95v.16a2,2,0,0,1-1.26,2.21,2.1,2.1,0,0,1-1.27.48q-8.85,1.91-29.25,3.32-10.74.63-16.12,1.42c-1.69.32-4,.84-7,1.58-3.37.85-5.69,1.37-7,1.58a2.37,2.37,0,0,1-2.53-.94,2.15,2.15,0,0,1,0-2.69q-4.26-6.17-16.75-22.61-5.22,7-14.07,20.55a2.29,2.29,0,0,1-2.69,1.11c-.74-.32-1.74-.79-3-1.42a2.43,2.43,0,0,1-1.75,1.42,157.92,157.92,0,0,1-27.82,3.32q-16.29.63-22.29-1.58-7.44-3-7.27-11.54,0-4.91,3.47-14.87.16-16-4.9-47.11-4.42-26.09-7.43-38.42-1.59-6-4.27-16.6-3-11.7-4.27-16.76-6-23.39-8.06-35.25A76.73,76.73,0,0,1,732.69,63q-.16-5.05,1.73-6.48a1.55,1.55,0,0,1,1.11-.47,1.73,1.73,0,0,0-.31-.47,1.82,1.82,0,0,1-.16-2.69Q754.35,26.75,761,20.59a4.5,4.5,0,0,1,.63-.47,2.43,2.43,0,0,1,1.11-2.06,1.93,1.93,0,0,1,2.53,0q1.26.8,7,1.9,5.53,1.11,12.49,2.06c4.75.63,8.8,1.05,12.18,1.26a53.61,53.61,0,0,0,7.11.32c1.58-.32,2.53.37,2.85,2,.42-.84.79-1.63,1.1-2.37a2,2,0,0,1,2.69-1.11,2.33,2.33,0,0,1,2.69.16,2.25,2.25,0,0,1,.95,2.69q-1.9,6.16,1.58,26.25,3.17,18.18,2.69,15.81,2.52,13.28,3.16,19c.53,4.21.79,6.64.79,7.27.63-.84,1.1-1.53,1.42-2.06q2.22-3.15,7.12-10.75,4.58-6.8,7.27-10.59,9-12.81,9.33-15a2.44,2.44,0,0,1,1.58-1.9,2.6,2.6,0,0,1-.63-3.16q3.15-6.63,11.38-14.39,10.9-10.26,13.12-13a1.93,1.93,0,0,1,0-2.53c.74-1.05,1-1.42.79-1.1a2.18,2.18,0,0,1,2.53-1.11,2.46,2.46,0,0,1,1.9,1.74l3.48.16c1.58.21,3.32.37,5.21.47q8.38.79,11.54,1.26,3.48.33,11.07.79a117.94,117.94,0,0,1,13.28,1.27A17.56,17.56,0,0,1,928.73,25a2.38,2.38,0,0,1,2.37,0,1.76,1.76,0,0,1,1.27,2.06C932.37,27,932.31,27.08,932.21,27.39Z"/><path class="cls-8" d="M885.25,249.37q21-1.43,28.46-2.85a2,2,0,0,1-.63-1.42q-31.62-41.58-38.26-51.23-12.33-18.18-17.71-24.35-10-11.06-9.8-16.44v-.32a2.12,2.12,0,0,1-2.37-1.26,2.45,2.45,0,0,1,.16-3,73.61,73.61,0,0,0,6.64-10.28q4.26-7.74,6.16-10.43,13.61-19.46,17.71-26.88A178.49,178.49,0,0,1,892.37,75c.73-1,2-2.63,3.79-4.74s3-3.53,3.8-4.59q4.57-5.69,5.53-8.38-6.48-1.1-34.15-1.1a93.49,93.49,0,0,1-14.07-.79,26.37,26.37,0,0,1-4.74-1,.7.7,0,0,1,0,.63q-.48,4-9.65,16.76-2.68,3.8-7.74,11.54T827.23,94.9q-2.06,2.85-8.06,10.75-5.22,6.8-8.07,10.91-8.22,12-14.07,14.55a2.44,2.44,0,0,1-2.84-.64,2.32,2.32,0,0,1-.64-2.53q-5.52-14.39-10.27-38.1a173.8,173.8,0,0,1-3.48-22.76,70.28,70.28,0,0,1,0-9.49h-.16q-6.15-1.11-24.5-1.27-7-.15-12.65,0h-4a9.06,9.06,0,0,0-.95.16q2.37,1.74.16,3.48a2.87,2.87,0,0,0-.16.95,21.77,21.77,0,0,0,0,3.79,106.31,106.31,0,0,0,1.74,11.86q-.17-.32,16.6,68.14,3.32,13.92,7.59,41,4.28,27.51,4.42,41.9a2.26,2.26,0,0,1,.32,2,1.77,1.77,0,0,0-.32.64c0,1.79-.05,3.32-.15,4.58a2.23,2.23,0,0,1-2.22,2.37,24.24,24.24,0,0,0-1.26,8.86q.32,4.57,7.11,5.85,7.59,1.41,21.51.47a160.62,160.62,0,0,0,22.92-3,2.5,2.5,0,0,1,1.74.31,3.31,3.31,0,0,1,1.26-1.42q-1.58-5.85-5.21-17.39-3.81-11.53-5.38-17.39a151.8,151.8,0,0,1-4.43-22.14q-.95-10.44,1.58-16.44a2.4,2.4,0,0,1,.48-.63l-.16-.48c-.42-1.47.16-2.42,1.74-2.84a2.17,2.17,0,0,1,3,1.73q4.74,19.31,21,42.22,4.28,6.16,14.39,19.29,9.32,12.33,13.91,19.13,8.85-2.22,10.75-2.53l6.48-.95Z"/><path class="cls-8" d="M764.31,24.23Q756.72,31.34,742,51.42h13.12q18.65.16,25.77,1.43a11.76,11.76,0,0,1,.63-1.58c.63-1.58,1.69-1.85,3.16-.8q15.66-14.07,20.71-22.29l-.31.16a46.19,46.19,0,0,1-8.38-.16q-6.33-.46-13-1.42-8.38-1.11-13.6-2.21a40.75,40.75,0,0,1-5.22-1.27A2.62,2.62,0,0,1,764.31,24.23Z"/><path class="cls-9" d="M808.42,32.45q-4.75,7.27-22.61,23.72a3.48,3.48,0,0,1-1.11.47q-.63,3.64.16,12.65a211.35,211.35,0,0,0,3.8,22.77q4.58,21,9,33,2.69-1.91,11.06-13.6.63-.78,10.44-13.75A2.89,2.89,0,0,1,817,96.32a2,2,0,0,1,.32-2.53,2.69,2.69,0,0,0,.16-.79,27.18,27.18,0,0,0-.16-2.84c-.21-2.22-.58-5.11-1.1-8.7q-.48-2.68-3.17-17.7.32,1.74-2.84-17.24A123,123,0,0,1,808.42,32.45Z"/><path class="cls-10" d="M823.28,245.89q7.11-10.75,12.17-17.39-20.24-26.88-26.88-45.7a45.17,45.17,0,0,0,.32,10.44A157.55,157.55,0,0,0,813.48,214q1.41,5.38,4.9,16T823.28,245.89Z"/><path class="cls-9" d="M896,166.36q-10.9-13.43-16.28-20.71-7-9.48-6.32-12.17a82.27,82.27,0,0,1-7.75,8.38q-9,8.69-14.54,7.27h-.48c-.53.74-.9,1.26-1.11,1.58,1.8-.1,2.64.74,2.53,2.53s1.64,4.79,4.91,8.69q1.1,1.42,3.47,4l3.48,4q2.85,3.48,17.39,25,10,14.7,19.92,27.35,1.57,1.91,5.38,6.64,3.31,4.27,5.22,6.8c2.1,2.64,3.74,4.69,4.9,6.17a1.91,1.91,0,0,0,.31.47q1.9-3,5.22-7.74,4.74-6.81,11.86-15.66a4.27,4.27,0,0,1,.31-1.58Q930,212.22,911,185.49,906.6,179,896,166.36Z"/><path class="cls-9" d="M925.73,43.68a29.42,29.42,0,0,0,3-7.43,63.44,63.44,0,0,1-4.9,6.64q-10.44,13.28-10.75,13.75a2,2,0,0,1-.63,2.53c-1.06.95-1.53,1.37-1.43,1.26a2.42,2.42,0,0,1-1.73.32q-1.11,2.37-12.18,16a163,163,0,0,0-17.39,26.72q-2.54,4.74-18.34,27.82l-7.9,13.28q3.15-.15,11.06-8.53,1.9-1.74,10.44-12a1.85,1.85,0,0,1,2.53-.47c.73-1.37,1-2,.79-1.74q.94-1.43,4.9-9.17,4.27-8.07,13.75-24.67-.8,1.59,20.56-31.3l6.64-10.28Z"/><path class="cls-8" d="M877.83,24.23Q875,28,865.65,36.72q-8.22,7.44-11.54,13l.32.15a6.21,6.21,0,0,0,.78.32c.85.21,1.59.37,2.22.47,1.79.22,3.69.37,5.69.48q6,.31,12,.16,22-.48,33.67,1.58a6.53,6.53,0,0,0,.79.31,7.29,7.29,0,0,0,.79-1.1q1.74-2.39,6.64-8.38,8.54-10.44,9.81-14.08a1.8,1.8,0,0,1-1.11-.94c.1.21-.16.21-.79,0-.85-.21-1.58-.37-2.22-.48-1.47-.21-3.32-.42-5.53-.63s-6.17-.47-11.86-.79l-14.7-1.27-10.28-1.1.48.16Z"/><g id="C"><path d="M727.31,57c.63,1.47.48,2.63-.47,3.47a15.37,15.37,0,0,1-2.37,1.74q.78,3.48-9.33,13.76a88.77,88.77,0,0,0-16.92,24.66,2.29,2.29,0,0,1-2.69,1.27,3.34,3.34,0,0,1-2.37-2.06l-.16-.31a3.08,3.08,0,0,1-.94.15q-19.77.48-22.46,1.27c-1.89.53-3.05-.11-3.47-1.9q-.79-5.37-6.48-11.86a18,18,0,0,0-1.9,4.11,2,2,0,0,1-1,1.43q-2.85,6-5.38,34-2.83,31-2.21,41.74a48.38,48.38,0,0,0,1.42,9.64q4.59-3.8,10.6-23.4a2.48,2.48,0,0,1,3.32-1.9c1.79.43,2.52,1.43,2.21,3a2.34,2.34,0,0,0,.47.63q1.59,2.68,13.6,7a52,52,0,0,1,10.59,5.06,3,3,0,0,1,2.85-.16,2.11,2.11,0,0,1,1.26,2.37q-.15,2.06,10,6.48a66.45,66.45,0,0,0,13,4.43q2.52.63,1.74,3.32a3.12,3.12,0,0,1,2.37,1.27,2,2,0,0,1-.16,2.68q-25.6,35.73-39,42.38-31.3,15.8-59.92,3a3.42,3.42,0,0,1-1.11.16Q596.1,231.65,579,222q-20.87-11.86-26.71-34.32-5.55-21.33.15-61.34Q558,88.11,573,60.75a265.35,265.35,0,0,1,15.81-25.61Q598,22,607,17.75q8.37-4.11,29.4-3.64,21.51.33,35.58,3.16A2.15,2.15,0,0,1,673.87,20q16.75-.63,31.62,10.75Q718.78,40.52,727.31,57Z"/><path class="cls-11" d="M568.9,207.31q14.7,15.34,43.63,20.08-25.93-21.49-18-80.48,1.1-8.37,2.53-24.82,1.26-16.59,2.37-24.66,4.11-31.46,18.5-44.11a2.23,2.23,0,0,1,1.1-.63q6.65-10.27,20.24-19.45,13.13-8.85,24.66-11.7-12.48-1.89-33.35-1.89-12.81-.16-17.55,1.58a32.78,32.78,0,0,0-11.7,7.43q-6,6-16.13,22.29A204.61,204.61,0,0,0,569.85,80.2q-11.55,29.4-14.39,69.88Q552.61,190.39,568.9,207.31Z"/><path class="cls-11" d="M720.2,58.38a4.36,4.36,0,0,0,1.11-.63Q712.61,42.09,700,33.4,685.09,23.13,669.45,26,655.38,28.66,641,38.78q-15.33,10.74-20.24,22.6c-.84,1.8-2.11,2.11-3.79.95q-8.22,10.76-11.38,31.46-1.27,8.07-2.22,21.35-1.26,16.12-1.9,21.34-3.78,34.47-2.68,47.27,3,30.67,20.71,42.06,12.81,8.07,30.35,8.06a66.56,66.56,0,0,0,30.68-7.43q13.28-7,36.51-39.52h-.15a70.8,70.8,0,0,1-16.6-6.17,37.68,37.68,0,0,1-7.28-4.27,28.76,28.76,0,0,1-9.16,14.39A25.41,25.41,0,0,1,668,197.19a22,22,0,0,1-15.66-5.53q-6.17-5.53-7.75-14.86-2.21-12.81,1-47t7.11-41.58a2.34,2.34,0,0,1,.47-.63,39.91,39.91,0,0,1,3.48-6.17,3.09,3.09,0,0,1,1-1.1q10.44-13.44,22.29-8.7,9.33,3.8,16.28,20.71a74.88,74.88,0,0,1,11.55-16.92q8.22-8.37,7.27-7.27,2.37-2.69,3.16-3.64.79-1.26,1.11-.63a2.17,2.17,0,0,1-.16-2.37A2.52,2.52,0,0,1,720.2,58.38Z"/><path class="cls-12" d="M664.86,162.25q-4.59,15.81-12,21.19a13.79,13.79,0,0,0,10.28,7.74c5.79,1.17,11.22-.16,16.28-4a21.67,21.67,0,0,0,8.85-14.39q-3-2-12-4.9Q668.18,165.26,664.86,162.25Z"/><path class="cls-12" d="M670.87,94.9q3-.63,20.08-.79-5.22-13-11.54-16.44-8.22-4.59-16.44,4.9Q669.28,89.68,670.87,94.9Z"/></g></g></g></svg>