<svg xmlns="http://www.w3.org/2000/svg" viewBox="0 0 940.89 391.59"><defs><style>.cls-1{fill:#dd1717;}.cls-2{fill:#540e0e;}.cls-3{fill:#a50808;}.cls-4{fill:#20c0e5;}.cls-5{fill:#3cb9ce;}.cls-6{fill:#62ce29;}.cls-7{fill:#5aaa26;}.cls-8{fill:#0d04b2;}.cls-9{fill:#08089b;}.cls-10{fill:#0a0a8e;}.cls-11{fill:#efdb22;}.cls-12{fill:#dbaa21;}</style></defs><title>Layer 1</title><g id="Layer_2" data-name="Layer 2"><g id="Layer_1-2" data-name="Layer 1"><path d="M111.07,40.9a1.12,1.12,0,0,1,1,1.37c-.13,1.58-1.12,3.9-3,7q-.5,1-3.83,10.12-.88,2.46-3.93,10-2.46,6.28-3.74,10.22-5.5,16.91-5.7,17.79-2.46,9.53-4,11.69c.26,1.31-.2,1.9-1.37,1.77q-5-.39-14.75,2.26a1.34,1.34,0,0,1-1.86-1.08,1.32,1.32,0,0,1-1.48-.1,1.78,1.78,0,0,1-.59-.1Q47.29,102,48.26,103.21a1.49,1.49,0,0,1-1.37-.1,1.22,1.22,0,0,1-.79-1.28,60.09,60.09,0,0,0-.1-6.09c-1.5.32-3.6.85-6.29,1.57-.91.26-1.5-.1-1.76-1.08a1.51,1.51,0,0,1-1.58-.1,1.78,1.78,0,0,1-.59-.1Q15.24,86.1,16.23,87.38a1.45,1.45,0,0,1-1.38-.1A1.34,1.34,0,0,1,14.16,86q0-8.16-1.47-23.3-.4-4.12-1.67-23.09A168.22,168.22,0,0,1,10.43,21a74.47,74.47,0,0,0,0-7.67c-.14-3.08-.56-5.08-1.28-6a1.53,1.53,0,0,1-.1-1.87,1.53,1.53,0,0,1,1.48-.79A1.14,1.14,0,0,1,11,4.34,77.67,77.67,0,0,1,25.27.7,1.26,1.26,0,0,1,26.94.11c1,.39,2.42.88,4.32,1.48s3.48,1.14,4.33,1.47q5.59,2,7.07,3.64a1.14,1.14,0,0,1,.4.78,1.59,1.59,0,0,1,.39.69,1.47,1.47,0,0,1-.2,1.47,14,14,0,0,1-.19,3,4.77,4.77,0,0,1-.2,1.28,7.72,7.72,0,0,0-.59,1.57,8,8,0,0,0,.1,4.13c-.07.26-.13.52-.2.78h.3a4.22,4.22,0,0,0,.49-.19,75.39,75.39,0,0,1,14.35-3.74,1.17,1.17,0,0,1,1.57-.59c1,.4,2.52.89,4.42,1.48s3.41,1.15,4.33,1.47q5.59,2,7.07,3.64a2.19,2.19,0,0,1,.4.79,1.5,1.5,0,0,1,.39.68,1.47,1.47,0,0,1-.2,1.48,14,14,0,0,1-.19,3A37.57,37.57,0,0,1,74.21,33a1,1,0,0,1,1,.09,1.33,1.33,0,0,1,1.18-.59,39.38,39.38,0,0,0,9.93-1,33.86,33.86,0,0,1,9.83-.88,1.36,1.36,0,0,1,1.27.88q9.73,4.23,13.37,8.85A1.27,1.27,0,0,1,111.07,40.9ZM68.61,108.42q2.16-5.61,5.9-17.89,3.72-11.79,6-17.89Q83.85,64,86.59,57.8c1-2.29,1.77-4.29,2.36-6,.92-2.56,1.21-4.2.89-4.92a1.74,1.74,0,0,1-.2-.78A23.66,23.66,0,0,1,86,43.65c-1.7-1.25-2.88-2.06-3.53-2.46s-2-1.21-4.53-2.65c-1.37-.79-2-1.12-1.76-1a21.09,21.09,0,0,1-1.58,4.53q-3.82,8.84-5,11.89-3.82,9.74-4.72,11.89-1.67,3.93-2.26,5.9A24.86,24.86,0,0,1,61.53,78a1.06,1.06,0,0,1-.29.78,1.46,1.46,0,0,0-.1.4,1.5,1.5,0,0,1-2,1c-1-.26-1.31-.85-1-1.77a7.67,7.67,0,0,0,.39-1v-.69a23.89,23.89,0,0,1,1-5.7q0,.59-.89-13.56-.09-.79,0-11.89.2-12,.3-14.35A33.52,33.52,0,0,1,51.7,28a7.43,7.43,0,0,0-1-.59,5.36,5.36,0,0,0-2.85-1.77c-.19-.06-.43-.13-.69-.19A21.76,21.76,0,0,0,45,24.68a6.17,6.17,0,0,1,.2.89,5.45,5.45,0,0,0-2.85,1.37q-3.54,8-4.82,11.11-3.82,9.83-4.72,11.89c-1.11,2.69-1.86,4.68-2.26,6a21,21,0,0,1-1,6.1,1.23,1.23,0,0,1-.29.88,1.12,1.12,0,0,1-.2.39,1.44,1.44,0,0,1-2,.89c-1-.26-1.28-.85-.89-1.77a5.1,5.1,0,0,1,.3-.88v-.79a20.62,20.62,0,0,1,1.08-5.6q-.11.59-1-13.56-.09-.8.1-11.9c.07-8,.16-12.77.3-14.35a28.81,28.81,0,0,1-7.28-3.24A39.65,39.65,0,0,0,13,8.86c.46,1.7.63,4.81.49,9.33q-.2,11.11.4,19,1.47,21.44,1.77,24Q17.11,77,17.11,84.73a1.6,1.6,0,0,1,1.38.69q2.16,2.74,9.53,4.91c5.11,1.57,7.86,2.43,8.26,2.56a.62.62,0,0,1,.39-.3q2-5.31,6.48-20c0-.33.07.07.2,1.18a7,7,0,0,1,1.48-2.26,1.48,1.48,0,0,1,2.06-.1,1.36,1.36,0,0,1,.39,1.87l.3,3.63q1.56,15.83,1.57,23.59a1.57,1.57,0,0,1,1.37.69Q52.59,104,60,106.15c5.17,1.58,7.93,2.43,8.26,2.56l.19-.2ZM27.23,3.45A60.21,60.21,0,0,0,14.75,6.3a36.61,36.61,0,0,1,6,3,48.87,48.87,0,0,0,6.09,2.95c.13-.07.13-.1,0-.1a26.07,26.07,0,0,0,4.23-1.38c1.83-.65,3.24-1.11,4.22-1.37l3-.69c.46-.13,1-.29,1.57-.49q-1.08-.88-6.09-2.55C33,5.35,32,5,30.57,4.53S28,3.72,27.33,3.45Zm11.7,17.3a1.48,1.48,0,0,1-.3-1.38c.72-3.27,1.12-5,1.18-5.11a26.35,26.35,0,0,0,.4-2.94h0c-.33.06-.73.16-1.18.29s-.92.2-1,.2c-1,.26-2.42.69-4.12,1.27-2.1.73-3.44,1.18-4,1.38l.39.39a1.38,1.38,0,0,1-.39,2.36q0,2.26-.2,12.48-.11,11.51,0,12.49,0,.78.59,6c1.57-3.54,2.55-5.86,2.95-7q2.55-7,5.11-12.78c.13-.32.39-.88.78-1.67-1.31-.32-1.67-1.08-1.08-2.26A10.3,10.3,0,0,0,38.93,20.75Zm.29,73.51q4.13-1.08,6.69-1.57-.3-5-1.08-13.07a1.42,1.42,0,0,1-.79.2V80Q41.28,88.67,39.22,94.26Zm20.05-75a57.78,57.78,0,0,0-12.48,2.86,37.62,37.62,0,0,1,6,2.94,42.2,42.2,0,0,0,6,2.95c.2-.06.23-.06.1,0,1-.26,2.39-.72,4.23-1.37a29.91,29.91,0,0,1,4.12-1.38c1.77-.46,2.75-.72,3-.79.52-.13,1.08-.29,1.67-.49a32.81,32.81,0,0,0-6.09-2.55c-.72-.26-1.77-.63-3.15-1.08s-2.58-.82-3.24-1.09ZM71,36.57a1.33,1.33,0,0,1-.3-1.28c.72-3.27,1.08-5,1.08-5.2a18.25,18.25,0,0,0,.5-2.85v-.1a15.63,15.63,0,0,0-2.17.49c-1,.26-2.42.69-4.12,1.28-2.17.78-3.51,1.24-4,1.37l.39.4c.79.91.65,1.7-.39,2.36q-.1,2.35-.2,12.48-.1,11.49,0,12.57,0,.69.49,6c1.57-3.6,2.56-6,3-7.08q2.55-7,5.11-12.77a15.05,15.05,0,0,0,.78-1.67A1.44,1.44,0,0,1,70,40.31,9.41,9.41,0,0,0,71,36.57Zm34.59,13.07c.26-.59.75-1.5,1.47-2.75a20,20,0,0,0,1.48-2.75,29.82,29.82,0,0,0-7.27.88c-.92.27-2.23.63-3.93,1.09a13.24,13.24,0,0,0-1.58.29,13.09,13.09,0,0,0-1.77.39,1,1,0,0,1-.49.4,1,1,0,0,1-.29.19.32.32,0,0,0-.2.1q.1,2.46-2.36,8.55c-.52,1.25-1.54,3.61-3,7.08q-1.87,4.42-3,7.17Q82,77.06,77.85,90.14q-4.34,13.85-6.69,20,9-2.55,14-2.35a15.19,15.19,0,0,0,2.06-4.72c.4-1.12,1-3.47,2-7.08q0-.09,5.6-17.2l7.37-19.55c.26-.86.82-2.46,1.67-4.82l1.08-3.05Zm-11-16a36.49,36.49,0,0,0-7.76.89A68.52,68.52,0,0,1,79,35.59l.88.59q3,1.66,4,2.36A32.15,32.15,0,0,1,87.67,41a23.25,23.25,0,0,0,5.21,3.14,8.49,8.49,0,0,1,.89-.2,3.1,3.1,0,0,1,.78-.19q3-.89,5.21-1.48a38.25,38.25,0,0,1,7.67-1.18Q103.79,37.55,94.55,33.62Z"/><path d="M182.51,86a1.31,1.31,0,0,1,1.87.49,1.17,1.17,0,0,1-.1,1.87q-1.08,1.08-3.63,3.73-2.27,2.46-3.64,3.73-5.89,5.31-5.9,5.21a1.15,1.15,0,0,1-1.27.79c-1.12.79-1.87.62-2.26-.49h-.2q-2.16-.69-19.17.1-14.73.69-22.21.29a1.46,1.46,0,0,1-1.57-1.47,20,20,0,0,1,.79-8,42.32,42.32,0,0,1,.09-7.57q.69-6.39.69-7.47.5-11.1,1.38-20.44,1.27-11.59,1.37-20Q129,24.29,130.23,20a1.51,1.51,0,0,1-.79-1.18,1.35,1.35,0,0,1,.69-1.37A16.23,16.23,0,0,0,133.47,15a39.51,39.51,0,0,1,3.24-2.55,45,45,0,0,1,5.71-3.35c2.61-1.44,4.52-2.55,5.7-3.34a1.24,1.24,0,0,1,1.47,0,1.4,1.4,0,0,1,1.38-1l15.52,1.08q6.49.5,7.87.79l1.27.29c.53.07,1,.14,1.28.2.72.2,1.08.26,1.08.2a1.56,1.56,0,0,1,1.28.39.29.29,0,0,1,.2.1.94.94,0,0,0,.39-.1,1.74,1.74,0,0,1,.59-.1c.06-.13.06-.16,0-.1a1.57,1.57,0,0,1,2.06-1,1.19,1.19,0,0,1,.89,1.77q-1,2.55-.79,8.25a51.36,51.36,0,0,0,.49,5.8,1.46,1.46,0,0,1,1.08,1,1.52,1.52,0,0,1-.29,1.57h-.1c0,1.31-.59,1.86-1.77,1.67-.46.39-2.19,1.7-5.21,3.93A42.81,42.81,0,0,0,173,33.33a10.08,10.08,0,0,0-2.16,2.16,1.53,1.53,0,0,1-1.77,1q-.69,1.58-2.07.69a11.82,11.82,0,0,0-4.12-1.37q-.88.89-.3,3.63.88.11,3.15.3c1.31.13,2.36.19,3.14.19a27.16,27.16,0,0,0,5,0,1.51,1.51,0,0,1,2-.78,1.14,1.14,0,0,1,1.87.49,1.53,1.53,0,0,1-.39,2.16l-1,.59a27.24,27.24,0,0,0-.2,6.88,56,56,0,0,0,1,8,1.54,1.54,0,0,1-.49,1.57,1.72,1.72,0,0,1-1.48.3q-1.66,1.66-11.69,9a2.48,2.48,0,0,0-1.77.49,2.39,2.39,0,0,1-.39,1c-.27.26-.27.91,0,2l.09.49q14.75.39,17.2-.39a1.25,1.25,0,0,1,1.77.88,1.53,1.53,0,0,1,1.87-.29,1.2,1.2,0,0,1,.78,1.67l-1.08,3.14S182.12,80,182.51,86ZM167.67,98.29c.07-.72.13-3.05.2-7a38.94,38.94,0,0,1,.49-6.88,1.66,1.66,0,0,1-.78-.59H148.9a.92.92,0,0,1-.39-.09A1.31,1.31,0,0,1,147,82.27q-.09-2.05-.29-7.07-.3-4.53-.3-7.08A2.58,2.58,0,0,1,144.87,67a1.34,1.34,0,0,1,.49-2.16,3,3,0,0,1,.59-.2c.33-.13.36-.13.1,0a1.56,1.56,0,0,1,1.08-.2,1.39,1.39,0,0,1,1.48-.29,1.24,1.24,0,0,1,1,1.28,10.65,10.65,0,0,0,1.57-.1c.46,0,1.08,0,1.87-.1a11,11,0,0,0,1.77-.1,18.87,18.87,0,0,1,6,.49c0-1-.09-2.71-.29-5s-.2-3.83-.2-5a23.25,23.25,0,0,1,.1-4q-4.52,0-6.39-.2a20.3,20.3,0,0,1-5.11-.68,1.17,1.17,0,0,1-1.57-.59,3.92,3.92,0,0,1-.59-.2c0-.07,0-.1-.1-.1a.3.3,0,0,0-.2-.1c-.91-.59-1-1.34-.29-2.26V45.91a19.23,19.23,0,0,0,0-2.85c0-1.05,0-2.36-.1-3.93a17,17,0,0,1,.1-3.44,1.54,1.54,0,0,1-.3-1.57,1.41,1.41,0,0,1,1.38-1h.2a1.49,1.49,0,0,1,2-.09q14.85-.88,18.68,1.27a2.62,2.62,0,0,1,.49-.69c-1-.06-1.48-.55-1.48-1.47V22.22q-1.28-.39-16.51-1.18-14.64-.67-17.39-.49-1,3.25-1.38,17.69-.39,9.24-1.47,19.36-.5,5-1.28,19.66-.78,15.63-.89,14.25a1.43,1.43,0,0,1,.1,1.18,3.6,3.6,0,0,1-.29.79,15.39,15.39,0,0,0-.59,5.3q8.25.3,21.62-.39Q165,97.51,167.67,98.29Zm-29.78-83c-.45.33-1.34,1.08-2.65,2.26,2-.07,4.78,0,8.26.19,4.19.27,7,.4,8.35.4q12.78.28,15.82,1.08,5.51-5.8,6.39-6.68c.2-.2.52-.56,1-1.09a14.22,14.22,0,0,0,1.18-1.28,8.12,8.12,0,0,1-1.37-.39,63.33,63.33,0,0,0-7.57-.88L151,7.68a2,2,0,0,1-.69-.1,1.18,1.18,0,0,1-.59.79c-1.12.72-3.11,1.83-6,3.34A47.78,47.78,0,0,0,137.89,15.25Zm21.73,24.57a9,9,0,0,1,0-4.23H157l-3.93.29c-1.77.14-3.08.2-3.93.2a10.86,10.86,0,0,0,0,3.05c.06,1.11.1,2.42.1,3.93v4q8.75-4.81,9.92-6.19A1.82,1.82,0,0,1,159.62,39.82Zm-1,34a8.44,8.44,0,0,0-.29-1.67,6.92,6.92,0,0,1-.3-1.77,4.62,4.62,0,0,1,.49-2.06q-.39-.1-7.37.09a15.77,15.77,0,0,0-1.67.1q0,1.27.4,10.13c.91-.14,2.71-1.15,5.4-3A14,14,0,0,1,158.63,73.82Zm3.83,1.28a1.46,1.46,0,0,1-1.37,1.18q-1.58.19-6.1,3.24a12.88,12.88,0,0,1-2.16,1.28h16a25.57,25.57,0,0,1,6.49-5.41Q173.77,75.58,162.46,75.1Zm.2-32.63a1.7,1.7,0,0,1-1.67.79q-2.06,2.06-8.06,5.2h2.75c.53.07,2.43.1,5.7.1a2.65,2.65,0,0,1,.69-.78,1.37,1.37,0,0,1,1.48-.3,28.67,28.67,0,0,1,3.24-2.26c1.9-1.24,3-2,3.34-2.16l-.79-.1c-.78,0-1.9-.06-3.34-.2l-2.36-.19ZM173,44.73q-9,6.78-8.75,6.49a1.73,1.73,0,0,1-.88.49,40.84,40.84,0,0,0,0,6c0,.72.06,1.8.2,3.25s.19,2.52.19,3.24a80,80,0,0,0,10.12-8.06,55.36,55.36,0,0,1-.78-6.88C173,47.22,173,45.71,173,44.73Zm6.68-33.61q-.28.2-4.22,4.22c-.86.92-2.36,2.53-4.52,4.82a1.47,1.47,0,0,1,.29,1.57,1.5,1.5,0,0,1-1.08,1c-.07.91-.07,3.93,0,9a42,42,0,0,1,3.83-3q6-4.43,6.49-4.91a28.83,28.83,0,0,1-.88-7.38C179.57,14,179.6,12.23,179.66,11.12Zm-4.72,82.55q1-1,4.72-4.91a.3.3,0,0,1-.09-.2c0-.52-.1-2.49-.3-5.89a45.67,45.67,0,0,1,0-6,22.82,22.82,0,0,0-7.08,4.91.41.41,0,0,1-.09.3q-1,2.85-1.28,14.84c.32-.26,1-.75,2.06-1.48A22.93,22.93,0,0,0,174.94,93.67Z"/><path d="M267.72,62.22a96.64,96.64,0,0,0,1.77,11.31,50.77,50.77,0,0,1,1.18,11.3,1.37,1.37,0,0,1-1.08,1.47,3.57,3.57,0,0,1-1.87.1A1.52,1.52,0,0,1,266.64,88q-17.49,5.22-28.7,15.73a1.36,1.36,0,0,1-1.18.39,1.44,1.44,0,0,1-2.16.88q-11-5.1-18-2.85c-1.32.4-1.94-.13-1.87-1.57a1.41,1.41,0,0,1-.69-.39Q211.3,97.51,209,85.61q-.69-3.93-2.55-11.4-1.87-7.67-2.66-11.4A138.27,138.27,0,0,0,199,44c-1.17-3.4-1.93-5.76-2.26-7.07a7.64,7.64,0,0,1-.29-3.84,1.51,1.51,0,0,1-.79-1.18,1.37,1.37,0,0,1,.39-1.18c-.26-1,.07-1.67,1-1.86a40.66,40.66,0,0,0,9-4A41.46,41.46,0,0,0,212.19,21a1.43,1.43,0,0,1,1.28-1.18l.1-.1a1.32,1.32,0,0,1,1.87-.2c.72.53.95,1.12.68,1.77a20.35,20.35,0,0,0,7.77,3c4.58,1,7.33,1.64,8.25,2,.4-.26.72-.49,1-.68a1.18,1.18,0,0,1,1.37-.1c1.18-.2,1.8.29,1.87,1.47q.3,3.54,5.21,22.9c1.37,5.38,2.42,9,3.14,11,2-1.77,5-2.66,8.95-2.66a28.87,28.87,0,0,1,11.79,2.27,2.31,2.31,0,0,1,.59.39C267.16,60.62,267.72,61.11,267.72,62.22ZM235.49,102a.3.3,0,0,0,.09-.2q-4-6-6.48-16.9-3.45-15-4.33-17.79-.69-1.68-2-5c-.86-2.3-1.48-4-1.87-5.12q0,.1-2.75-9.14c-1.77-6-2.56-9.86-2.36-11.49a1.54,1.54,0,0,1-1.08,0,25.92,25.92,0,0,0-7.57-1.58q-6.39-.59-7.76-.78l-.1.1c-.2.26.2,1.83,1.18,4.71.06.2.82,2.39,2.26,6.59A163,163,0,0,1,207,63.5q.67,3.54,2.45,10.42t2.36,10.42q1.08,5.4,1.67,7.56,1.28,4.72,2.75,6.1a1.66,1.66,0,0,1,.49.88Q224.28,97,235.49,102Zm-28.41-74.2a48.69,48.69,0,0,1-6.88,3.24q1.38.3,7.77.79a25.62,25.62,0,0,1,7.56,1.57,1.4,1.4,0,0,1,.69.49,1.27,1.27,0,0,1,1.08-1.47,66.85,66.85,0,0,0,11.4-4.33Q215.25,24.39,214,23.4A47.28,47.28,0,0,1,207.08,27.83Zm59.17,57.1a1.62,1.62,0,0,1,1.47-1.48,61.3,61.3,0,0,0-1.28-9.63q-1.28-7.17-1.57-9.73-15.44,8.26-14.25,7.27a1.47,1.47,0,0,1-1.77.2,1.13,1.13,0,0,1-1.87-.2q-4.51-5.7-8.15-20.24Q233.91,32,233.62,28.81A58.4,58.4,0,0,1,219.17,35a1.24,1.24,0,0,1-.2.69c-.45,1.05-.23,3.24.69,6.58.13.46.46,1.54,1,3.25.4,1.31.69,2.39.89,3.24a71.87,71.87,0,0,0,3.14,9.43q2.66,7.19,3.35,9.34,10.6,33.51,9.82,32.24,11.4-9.83,28-14.75A.93.93,0,0,1,266.25,84.93ZM254.16,61.14q-6.39,0-8.26,2.66a31.14,31.14,0,0,0,2.95,5.11q1.08-.8,13.07-6.69A26.51,26.51,0,0,0,254.16,61.14Z"/><path d="M354.31,91.22a1.36,1.36,0,0,1,.39,1.37,1.75,1.75,0,0,1-1.08,1.08q-.6,1.58-3.34,2.85A50.83,50.83,0,0,1,342,99.28a105.14,105.14,0,0,1-18,3.14q-15.22,1.38-23.58-7.67l-.79-1h-.19c-1.71-.26-3.8-1.83-6.29-4.72q-2-2.35-5.8-7.76-6.11-8.25-8-22Q275.77,32.14,288.36,28a14.37,14.37,0,0,1,3.15-3.14,44.63,44.63,0,0,1,10.61-6.19,45.45,45.45,0,0,1,11.6-2.76q7.86-.88,11.59.59a1.57,1.57,0,0,1,1.67.2A75.13,75.13,0,0,1,335.83,26q5.1,6.09,5.6,9.14,2,1.38,3.24,2.16c.92.59,1.12,1.28.59,2.06q-8.64,14.16-9,15.93a1.21,1.21,0,0,1-.78.88,1.47,1.47,0,0,1-1.58.59,20.38,20.38,0,0,0-12.68,1.18q-7.26,2.85-7.27,8.84l.39.2q3.34,2.27,8.65,1a19.45,19.45,0,0,0,8.16-4h0c-.07-1,.43-1.47,1.47-1.47a1.41,1.41,0,0,1,1.58,1.47c0,.66,1.08,2.49,3.24,5.51a40.61,40.61,0,0,0,2.75,3.44l.4.39a1.25,1.25,0,0,1,1.67,1.08c.06.2.13.39.19.59s0,.2.1.2q.89,2.85,5,8.35A89.19,89.19,0,0,0,354.31,91.22ZM294.65,86.1c-.07-.13.07,0,.39.5a45.07,45.07,0,0,1-3.93-24.08q1.58-14.83,10.22-23.79,8.85-9.13,23-10.41a1.3,1.3,0,0,1,1.18-.59q4.71-.11,11,3.93c-1.12-1.51-2.4-3.11-3.84-4.82q-3.33-3.73-6.38-6.58a.92.92,0,0,1-.69-.3q-3.25-2.05-11.89-1a42.7,42.7,0,0,0-9.93,2.26,43.32,43.32,0,0,0-8.55,4.62,23.91,23.91,0,0,0-4.42,3.54,1.11,1.11,0,0,1-.59,1.08,2.12,2.12,0,0,0,0,1.57,1.39,1.39,0,0,1-.69,2.07,1.22,1.22,0,0,1-2-.59,7.6,7.6,0,0,1-.39-1.58q-4.32,3-5.21,10.81a67.68,67.68,0,0,0,.49,16.42q1.77,12.76,7.28,20.34C292.16,82.86,293.8,85.06,294.65,86.1Zm56.21,6.49a1.15,1.15,0,0,1,.1-.49,72.69,72.69,0,0,1-6-7.17,36,36,0,0,1-5.11-8.06,27.61,27.61,0,0,1-16.81,3.44Q313.23,79,311.26,69.89q-1.87-8.74,6.19-13.56a23.25,23.25,0,0,1,16-2.76q1-3,8.35-14.54l-3.63-2.46q-2.35-1.56-3.74-2.45c-3.34-2-6-3.15-8.06-3.35a1.68,1.68,0,0,1-.88.5q-16.81,1.08-25.06,13.26t-6.19,28.11q2.85,22.11,19.06,26,8,1.86,21-.69a103.81,103.81,0,0,0,11.11-2.75,23.49,23.49,0,0,0,4.13-1.67,4.7,4.7,0,0,0,1.08-.69ZM332.09,66.94q-9.43,6.89-17.49,3.64,2.36,6.28,9.83,6.88A24.72,24.72,0,0,0,337.6,74.7c.06.07-.76-1.08-2.46-3.43A48.2,48.2,0,0,1,332.09,66.94Z"/><path d="M435,39.42q13.06,22,2.95,40.2-9.24,16.71-28.11,21-13.66,3-24.86-2.55-10.62-5.31-14.06-15.93a2.06,2.06,0,0,1-.59-.09q-6.78-2.56-8.94-14.16-2.75-14.54,1.38-25.35Q369,26.25,382.41,20.45q19.06-8.34,31.84-2.26,7.47,3.54,19.86,20.54A1.58,1.58,0,0,1,435,39.42ZM364.92,70.18q1.86,6.5,5.11,8.46-.19-1.29-.3-2.46Q368.65,64.09,375,49.55q7.08-15.73,17.3-18.48l.19-.1a1.5,1.5,0,0,1,1-1.08,1.14,1.14,0,0,1,1.47.39h.49a14.2,14.2,0,0,0,1.67.1c1.18,0,2.62-.06,4.33-.2l9.92-.49q7.38-.2,15.83,4.72Q416,19.28,404,18.78q-19.56-.68-30.56,11.7A38,38,0,0,0,363.35,57.6q.19,7.47.19,7.47Zm73,1.77q4.13-13.86-4.92-29.87a1.62,1.62,0,0,1-.59-.49l-.09-.1a47.55,47.55,0,0,0-13.76-7.67,27.21,27.21,0,0,0-9.73-1.08q-11,.59-10.12.59a19,19,0,0,1-4.62-.2,1.5,1.5,0,0,1-1,.79Q382.52,36.86,376,55.34q-6.28,18-1.27,28.7,6.28,13.27,22.9,14.55A38.57,38.57,0,0,0,422.31,92l12.09-8.06ZM405.21,50.63q9.54-1,10.32,10,.89,10.32-5.11,15.92a9.58,9.58,0,0,1-8.06,2.75q-5.12-.78-7.17-6.48a16.77,16.77,0,0,1,0-11.6q1.57-4.32,8.65-9.24A1.33,1.33,0,0,1,405.21,50.63Zm4.23,22.5a19,19,0,0,0,3.14-11.5q-.09-7.66-5.89-8.06v.3a13.56,13.56,0,0,1-2.56,8.45,14,14,0,0,1-6.88,5.7,12.32,12.32,0,0,0,.89,4q2.16,5.31,6.78,4.13A7.34,7.34,0,0,0,409.44,73.13Zm-5.9-17.3q-4.62,3.45-5.7,6.79l-.39,1.77a.28.28,0,0,0,.2.09A11.79,11.79,0,0,0,403.54,55.83Z"/><path d="M449.14,88.07c-1.11-.46-1.31-1.24-.59-2.36V84.43q0-1.56.2-6.09c.46-9.11.75-14.08.88-14.94q.5-4.41,1.87-11.2,1.77-9.44,2.16-11.2,1.18-7.28,2-10.32a48.46,48.46,0,0,0,1.67-10.13,1.22,1.22,0,0,1,.79-1.28,1.39,1.39,0,0,1,2-.88h0a43,43,0,0,0,5.9-3.73c1.18-.85,2.29-1.74,3.34-2.66a15.6,15.6,0,0,1,1.28-1.08,1.67,1.67,0,0,1,0-1.57,1.26,1.26,0,0,1,1.37-.69,58.91,58.91,0,0,0,7.37.79,39.61,39.61,0,0,0,6.1.1,1.4,1.4,0,0,1,2.06,1,1.14,1.14,0,0,1,.49.29q3,2.46,7,10.52,2.85,5.9,2.95,8.16a2.15,2.15,0,0,1,.29-.59c1.44-1.84,3.94-3.74,7.47-5.7,3.87-2.1,5.93-3.25,6.2-3.44a1.44,1.44,0,0,1-.5-1.77,1.16,1.16,0,0,1,1.48-.89l1.37.2a1.5,1.5,0,0,1,1.87.39c1.64.33,3.9.86,6.78,1.57q7,1.77,7.28,3.45v.39l.19.2a1.73,1.73,0,0,1,1.77.19,1.33,1.33,0,0,1,.39,1.67q-.5,1.18.3,5.6c.13.73.32,1.84.59,3.35s.45,2.62.59,3.34q2.55,15.42,3.34,19,1.58,6.49,3.64,20,2.05,13.27,3.63,19.86c.26,1.24-.29,1.8-1.67,1.67q-2.55,2-9.24,4-6.39,1.86-9.14,4.12a1.26,1.26,0,0,1-2.06-.19,1.55,1.55,0,0,1-1.08-.2,38.14,38.14,0,0,0-10.22-3.14A70,70,0,0,1,500.64,100a1.19,1.19,0,0,1-.88-.88,2.09,2.09,0,0,1-.1-.69,52.11,52.11,0,0,0-.2-7.67q-1.38.21-11.6,5a1.26,1.26,0,0,1-2-.69,2.34,2.34,0,0,1-1-.89c-.33-.59-.4-.72-.2-.39a3.5,3.5,0,0,1-.2-.49c-1,1-1.86.85-2.45-.39-.86-1.9-1.84-4.43-2.95-7.57a1.32,1.32,0,0,1-.3,1.08,27.07,27.07,0,0,1-4.71,3.44q-2.46,1.57-3.94,2.36a1.82,1.82,0,0,1-1,.88,1.52,1.52,0,0,1-.39,1.48,1.24,1.24,0,0,1-1.48.19q-3.13-1.36-9-3.34Q452,89.25,449.14,88.07Zm2.46-2.26q2.36,1,7.37,2.65c3.21,1.05,5.64,1.9,7.27,2.56a1.72,1.72,0,0,1,.79-.69c-.2.13-.17.13.1,0-.59-8.51-.76-13.63-.49-15.33q.78-5.2.88-5.9c.33-2.81.2-4.52-.39-5.11a1,1,0,0,1-.3-1.37,1.54,1.54,0,0,1,1.18-1,1.51,1.51,0,0,1,1.08-1.08,1.46,1.46,0,0,1,1.58.4q.48.69,14.15,30.66l.1.2a1.13,1.13,0,0,1,1.08-.5q-.11.3,6.09-12,3.84-7.56,4.52-11.89V64.19a1.31,1.31,0,0,1,1.57-1.38c1.05.14,1.54.69,1.48,1.67v.2a1.76,1.76,0,0,1,.19.79c-.06.72-.13,1.47-.19,2.26a129.7,129.7,0,0,0,1.67,14.84,94,94,0,0,1,1.38,14.94,76.52,76.52,0,0,0,9.23,2.16,46.64,46.64,0,0,1,9.05,2.55l.09-.1a6.22,6.22,0,0,1-.19-1c-.07-.26-.27-1.14-.59-2.65q-.3-1.38-1.08-8.35-1.49-12.58-2.76-20.54-1.86-12.28-2.36-18.78-.87-11.49-3.73-14.54A1.18,1.18,0,0,1,510,35.2c-.85-.26-2-.56-3.34-.89a27.68,27.68,0,0,0-3.64-.78l-1.28-.2c-.19,0-.23-.06-.1-.2a1.27,1.27,0,0,1-2-.68h-.2c-.13.13-.33.36-.59.68s-1,1-1.77,2q-1.86,2.16-4.91,6.19c-1.12,1.38-2.52,3.21-4.23,5.5q-3.43,4.53-4.22,5.61a1.43,1.43,0,0,1-1.77.49,1.51,1.51,0,0,1-1.08-1.28l-.2-.39a140.94,140.94,0,0,1-4.82-13.37,140,140,0,0,0-4.71-13.37,1,1,0,0,1-.2-.58c-.65-.07-2-.3-4-.69-2.42-.46-4.65-1-6.68-1.57a34.31,34.31,0,0,1-1.28,8q-1.19,5-2.06,10-.6,3.24-2,10.81-1.38,7-2,10.91-.5,2.94-1.09,14.84c-.13,3.54-.22,5.6-.29,6.19,0,1,0,1.87-.1,2.65v.1S451.53,85.35,451.6,85.81Zm32.63-73.12c-.26,0-1.64-.06-4.13-.19a53.17,53.17,0,0,1-6.68-.5q-.69,1.29-4.33,4a52.33,52.33,0,0,1-4.91,3.54c.92.2,1.77.39,2.55.59a23,23,0,0,0,6,.79h.3a24.44,24.44,0,0,1,2.35-2.07q2.16-1.56,4.13-2.75,4.73-2.85,4.72-3.24Zm-12.29,75a20.92,20.92,0,0,0,4.33-3.05,1.61,1.61,0,0,1,1.47-.59,1.85,1.85,0,0,1,1.28.89q-4.92-13.86-8.16-18.68c0,.79-.29,3.21-.88,7.28a39.34,39.34,0,0,0-.59,7.37q0,.09.69,7.86Q470.86,88.27,471.94,87.68Zm22.31-60.15a51.12,51.12,0,0,0-2.26-5.4c-2.09-4.2-3.77-6.92-5-8.16q-.69,1.77-5.8,4.62A32.35,32.35,0,0,0,477.74,21c-.59.39-1.21.85-1.87,1.37a9.27,9.27,0,0,0-.88.79l-.1.1a1.6,1.6,0,0,1-.49,1.18q1.67,3.93,4.23,12.08t4.22,12.09q6.09-8.06,7.67-10.12,2.85-3.63,4.81-5.9c-1.05-.52-1.24-1.21-.59-2.06C494.94,30.22,494.78,29.24,494.25,27.53Zm-5.11,64.18a49.36,49.36,0,0,1,8-3.54,1.49,1.49,0,0,1,2-1q-.19,0,0,.09c-.2-1.37-.49-3.37-.89-6s-.68-4.65-.88-5.9c-.59,1.31-1.48,3.15-2.65,5.51q-.69,1.38-2.07,4c-.92,1.76-1.6,3.08-2.06,3.93S489.6,90.66,489.14,91.71Zm38.72-67.52a1.41,1.41,0,0,1-.39-.29l-.39-.2a9.17,9.17,0,0,0-1.48-.49,42.51,42.51,0,0,0-4.71-1.28c-2.17-.59-4-1-5.51-1.28-1.24,1.38-3.67,3-7.27,4.72s-5.86,3.41-7.17,4.91a6.26,6.26,0,0,1,1.77.1c1.11.2,2.61.53,4.51,1a29,29,0,0,1,5.12,1.38,2,2,0,0,1,1.37-.1q-.39.2,7.86-4.81c.07-.07,1.28-.72,3.64-2,.65-.33,1.31-.69,2-1.08l.58-.39.1-.1Zm-3.93,78.52a37,37,0,0,1,8.36-3.53q7.07-2.27,8.94-3.84-1.08-5.1-3.14-18.57-1.58-10.32-3.94-20.54-.09-.39-3.34-19.17-1.47-8.94-1.27-7.47a15.57,15.57,0,0,1-.3-2.55,24.17,24.17,0,0,1-3.15,1.77q-8.83,4.62-11.59,7.07l-.4.4q2.16,3.54,2.95,14,.3,4.34,3.05,22.8.69,4.43,1.47,11.8,1.08,8.75,1.48,11.69Q523.93,103.51,523.93,102.71Z"/><path d="M617.2,86a1.31,1.31,0,0,1,1.87.49,1.17,1.17,0,0,1-.1,1.87c-.72.72-1.94,2-3.64,3.73q-2.26,2.46-3.64,3.73-5.9,5.31-5.89,5.21a1.16,1.16,0,0,1-1.28.79c-1.12.79-1.87.62-2.26-.49h-.2q-2.16-.69-19.16.1-14.74.69-22.21.29a1.46,1.46,0,0,1-1.57-1.47,20.21,20.21,0,0,1,.78-8,43.44,43.44,0,0,1,.1-7.57q.69-6.39.69-7.47.49-11.1,1.37-20.44,1.28-11.59,1.38-20,.3-12.48,1.47-16.81a1.47,1.47,0,0,1-.78-1.18,1.32,1.32,0,0,1,.69-1.37A16.51,16.51,0,0,0,568.16,15a37.78,37.78,0,0,1,3.24-2.55,44.71,44.71,0,0,1,5.7-3.35q3.93-2.16,5.7-3.34a1.24,1.24,0,0,1,1.47,0,1.4,1.4,0,0,1,1.38-1l15.53,1.08q6.48.5,7.86.79l1.28.29c.52.07.95.14,1.28.2.72.2,1.08.26,1.08.2a1.54,1.54,0,0,1,1.27.39.28.28,0,0,1,.2.1.94.94,0,0,0,.39-.1,1.78,1.78,0,0,1,.59-.1c.07-.13.07-.16,0-.1a1.58,1.58,0,0,1,2.07-1,1.19,1.19,0,0,1,.88,1.77q-1,2.55-.78,8.25a49,49,0,0,0,.49,5.8,1.5,1.5,0,0,1,1.08,1,1.52,1.52,0,0,1-.29,1.57h-.1c0,1.31-.59,1.86-1.77,1.67q-.69.59-5.21,3.93a42.81,42.81,0,0,0-3.83,2.85,10.5,10.5,0,0,0-2.17,2.16,1.53,1.53,0,0,1-1.77,1c-.46,1.05-1.14,1.28-2.06.69a11.8,11.8,0,0,0-4.13-1.37c-.59.59-.69,1.8-.29,3.63.59.07,1.64.17,3.14.3,1.31.13,2.36.19,3.15.19a27.21,27.21,0,0,0,5,0,1.5,1.5,0,0,1,2-.78,1.14,1.14,0,0,1,1.86.49,1.53,1.53,0,0,1-.39,2.16l-1,.59a26.77,26.77,0,0,0-.2,6.88,56.19,56.19,0,0,0,1,8,1.52,1.52,0,0,1-.49,1.57,1.71,1.71,0,0,1-1.47.3q-1.68,1.66-11.7,9a1.2,1.2,0,0,1-1.28.2,1.14,1.14,0,0,1-.49.29,2.15,2.15,0,0,1-.39,1c-.26.26-.26.91,0,2l.1.49q14.74.39,17.2-.39a1.26,1.26,0,0,1,1.77.88,1.52,1.52,0,0,1,1.86-.29,1.21,1.21,0,0,1,.79,1.67l-1.08,3.14S616.81,80,617.2,86ZM602.36,98.29c.06-.72.13-3.05.19-7a38.81,38.81,0,0,1,.5-6.88,1.74,1.74,0,0,1-.79-.59H583.59a.93.93,0,0,1-.4-.09,1.31,1.31,0,0,1-1.47-1.48c-.07-1.37-.16-3.73-.29-7.07q-.3-4.53-.3-7.08A2.58,2.58,0,0,1,579.56,67a1.34,1.34,0,0,1,.49-2.16,3,3,0,0,1,.59-.2c.33-.13.36-.13.1,0a1.55,1.55,0,0,1,1.08-.2,1.38,1.38,0,0,1,1.47-.29,1.23,1.23,0,0,1,1,1.28,10.8,10.8,0,0,0,1.58-.1c.46,0,1.08,0,1.86-.1a11,11,0,0,0,1.77-.1,19,19,0,0,1,6,.49q0-1.56-.3-5c-.13-2.16-.19-3.83-.19-5a21.33,21.33,0,0,1,.1-4q-4.53,0-6.39-.2a20.23,20.23,0,0,1-5.11-.68,1.17,1.17,0,0,1-1.57-.59,3.56,3.56,0,0,1-.59-.2.09.09,0,0,0-.1-.1.34.34,0,0,0-.2-.1c-.92-.59-1-1.34-.29-2.26V45.91a22.43,22.43,0,0,0,0-2.85c0-1.05,0-2.36-.1-3.93a16.27,16.27,0,0,1,.1-3.44,1.5,1.5,0,0,1-.3-1.57,1.39,1.39,0,0,1,1.38-1h.19a1.51,1.51,0,0,1,2-.09q14.83-.88,18.67,1.27a2.87,2.87,0,0,1,.49-.69q-1.47-.09-1.47-1.47V22.22q-1.28-.39-16.51-1.18-14.65-.67-17.4-.49-1,3.25-1.37,17.69-.4,9.24-1.48,19.36-.5,5-1.27,19.66-.79,15.63-.89,14.25a1.43,1.43,0,0,1,.1,1.18,4.25,4.25,0,0,1-.3.79,15.64,15.64,0,0,0-.59,5.3q8.27.3,21.63-.39Q599.69,97.51,602.36,98.29Zm-29.78-83c-.46.33-1.34,1.08-2.65,2.26,2-.07,4.78,0,8.25.19,4.19.27,7,.4,8.35.4q12.78.28,15.83,1.08,5.5-5.8,6.39-6.68c.19-.2.52-.56,1-1.09a15.91,15.91,0,0,0,1.18-1.28,10.42,10.42,0,0,1-1.38-.39A63.1,63.1,0,0,0,602,8.86L585.65,7.68a2.09,2.09,0,0,1-.69-.1,1.16,1.16,0,0,1-.59.79q-1.67,1.08-6,3.34A46.23,46.23,0,0,0,572.58,15.25ZM594.3,39.82a9,9,0,0,1,0-4.23h-2.65l-3.94.29c-1.76.14-3.08.2-3.93.2a10.86,10.86,0,0,0,0,3.05c.07,1.11.1,2.42.1,3.93v4q8.75-4.81,9.93-6.19A1.81,1.81,0,0,1,594.3,39.82Zm-1,34a7.94,7.94,0,0,0-.3-1.67,7.29,7.29,0,0,1-.29-1.77,4.49,4.49,0,0,1,.49-2.06q-.39-.1-7.37.09a14.69,14.69,0,0,0-1.67.1q0,1.27.39,10.13c.92-.14,2.72-1.15,5.41-3A13.86,13.86,0,0,1,593.32,73.82Zm3.83,1.28a1.48,1.48,0,0,1-1.38,1.18q-1.57.19-6.09,3.24a12.88,12.88,0,0,1-2.16,1.28h16A25.34,25.34,0,0,1,610,75.39C609,75.52,604.68,75.43,597.15,75.1Zm.2-32.63a1.71,1.71,0,0,1-1.68.79q-2.05,2.06-8,5.2h2.75c.52.07,2.42.1,5.7.1a2.39,2.39,0,0,1,.69-.78,1.36,1.36,0,0,1,1.47-.3,30.65,30.65,0,0,1,3.24-2.26c1.9-1.24,3-2,3.34-2.16L604,43c-.79,0-1.9-.06-3.34-.2l-2.36-.19Zm10.32,2.26q-9,6.78-8.75,6.49a1.76,1.76,0,0,1-.89.49,40.84,40.84,0,0,0,0,6c0,.72.07,1.8.2,3.25s.2,2.52.2,3.24a81.55,81.55,0,0,0,10.12-8.06,55.31,55.31,0,0,1-.79-6.88C607.7,47.22,607.67,45.71,607.67,44.73Zm6.68-33.61q-.3.2-4.23,4.22-1.27,1.38-4.52,4.82a1.57,1.57,0,0,1-.79,2.56c-.06.91-.06,3.93,0,9a42.75,42.75,0,0,1,3.84-3c4-2.95,6.16-4.59,6.48-4.91a29.76,29.76,0,0,1-.88-7.38C614.25,14,614.28,12.23,614.35,11.12Zm-4.72,82.55c.65-.65,2.23-2.29,4.72-4.91a.28.28,0,0,1-.1-.2c0-.52-.1-2.49-.3-5.89a45.67,45.67,0,0,1,0-6,22.78,22.78,0,0,0-7.07,4.91.38.38,0,0,1-.1.3q-1,2.85-1.28,14.84c.33-.26,1-.75,2.07-1.48A22.93,22.93,0,0,0,609.63,93.67Z"/><path d="M190.88,313.28q5.37,25.94-5.06,40-10,13.61-29.56,24.51-21.19,12-32.41,8.22A53.27,53.27,0,0,1,111,389.49q-25.62,4.27-56.76-.16-26.24-3.79-45.06-12a15.28,15.28,0,0,0,.48,2.37q-6.33-1.11-7.43-5.54l-.95-.47a2.44,2.44,0,0,1-1.27-2.85,2.42,2.42,0,0,1,2.06-2.21c.1-2.21.37-5.06.79-8.54q.94-7,1.11-8.53.47-5.39.94-17.08.32-11.22,1-17.23.79-7,9.49-77.47,3-24,5.06-36.84,4.43-27.83,3.95-34.78a2.28,2.28,0,0,1,1.9-2.69,2.15,2.15,0,0,1,.63-1.58,3.67,3.67,0,0,1,.79-1.58q8.53-7.91,24.67-16.76,21.18-11.39,26.08-14.7a4.24,4.24,0,0,1,1-.48,2.41,2.41,0,0,1,3.16-.16q3.33,2.22,11.86,4.27a114.86,114.86,0,0,1,11.7,3.17q2.69.95,13.12,4.11,8.07,2.37,13.12,4.11,33.21,10.9,43,23.08,11.69,14.38,14.07,38.42a188.81,188.81,0,0,1,.79,20.87q-.48,16.59-1.74,21.34a2.25,2.25,0,0,1-2.37,1.9,49.09,49.09,0,0,1-16.6,21.65c.21-.1.16-.05-.16.16-.53-.31.1.11,1.9,1.27a2.41,2.41,0,0,1,1.26,1.9c.42.53,1,1.21,1.74,2.05q1.74,2.06,2.85,3.64a73,73,0,0,1,6.16,9.8A82.55,82.55,0,0,1,190.88,313.28Z"/><path class="cls-1" d="M103,385.06q17.07-1.89,26.08-7.43a45.18,45.18,0,0,0,17.08-19.76,43.21,43.21,0,0,0,3.48-26.09,141.81,141.81,0,0,0-7.12-24.5q-4.91-13-8.54-18.18a2.16,2.16,0,0,1,.32-3.33,2.91,2.91,0,0,1,3.48-.47l.31-.32a85.94,85.94,0,0,0,6.49-8.85,69.34,69.34,0,0,0,9.17-22.45q3.47-16.44-.48-29.57-5.06-16-13.28-23.71-8.7-8.22-23.4-13.12-11.7-3.79-30.19-8.54c-1.8-.42-4.43-1-7.91-1.74l-8.06-1.9-14.07-3.63a65,65,0,0,0-7.28-.79q-5.06-.48-7.43-.79-8.85-1.27-11.7-1.42a26.25,26.25,0,0,1,.16,4.89q0-.63-4.74,33.68-4,29.25-5.06,38.89-.79,6.33-4.9,38.74-3,23.71-4.43,38.89-.46,4.59-.79,15.34-.31,9.8-.95,15.33c-.73,5.8-1.16,9.6-1.26,11.39a5.32,5.32,0,0,0-.16,1.58,10.9,10.9,0,0,1-.31,1.74A2.18,2.18,0,0,1,8.59,371a82.11,82.11,0,0,0,7.91,3.32,194.22,194.22,0,0,0,57.86,11.38A178.45,178.45,0,0,0,103,385.06Z"/><path class="cls-1" d="M81,135.74q-5.69,3.8-23.4,13.28Q42.74,156.92,35,163.25c1.16.21,2.74.47,4.75.79,2.21.31,3.79.53,4.74.63s3.48.37,7.91.79q4.89.48,8.06,1.11,25,6.17,34.62,8.69,23.25,6.5,29.09,8.7,16.29,6.63,24,17.39,19.6,27,9.17,60.24A71.79,71.79,0,0,1,149.3,279q12.64-7.11,14.55-8.37,13.43-9.64,18-23.88a2.48,2.48,0,0,1,1.9-1.74q.63-3.78.94-18.81a140.65,140.65,0,0,0-.94-19.92q-2.85-24.51-15-36.36-9.5-9.49-44.11-20.71-14.23-4.76-24.83-7.75Q82.26,136.52,81,135.74Z"/><path d="M69.46,293.36q16.13,1.27,26.24,15.81,9.81,14.08,7.12,30.2-2.22,13.29-16.13,16.28-6,1.28-25.29.48c-2.22-.1-3.11-1.31-2.69-3.64s.84-8.43,1.26-18q.48-11.07,3.17-17.71a2.38,2.38,0,0,1,1.26-1.42c.11-2,.47-5.17,1.11-9.49s1-7.43,1.26-9.64C66.88,294.21,67.77,293.26,69.46,293.36Z"/><path class="cls-2" d="M67.41,321.35Q65.66,327,65,342.85q1.74-1.58,9-6.8,19.29-13.91,21.19-16-7-17.86-23.24-20.71-2.22,20.55-2.21,19.45A2.51,2.51,0,0,1,67.41,321.35Z"/><path class="cls-3" d="M97.28,338.9A32.84,32.84,0,0,0,97,326.09Q94.75,328.15,80.84,338A132.33,132.33,0,0,0,70.25,346q-4.11,3.48-4.74,4.74,13.76,1.11,19.44-.15Q95.71,348.38,97.28,338.9Z"/><path d="M79.42,210.84q3.48,2.21,15.34,4.58,10.11,1.91,14.22,6.48,8.55,9.18,6.49,25.14Q113.25,264,99.5,270a36.93,36.93,0,0,1-14.39,3.16,33.9,33.9,0,0,1-8.38-1.1,28.73,28.73,0,0,0-8.22-.79c-1.58,0-2.48-.68-2.69-2.06q.32,1.59,1.74-30.35.94-19.77,3.48-25.77a2.13,2.13,0,0,1,2.06-1.42,3,3,0,0,1,2.21.94,2.88,2.88,0,0,1,1.42-1.89A2.74,2.74,0,0,1,79.42,210.84Z"/><path class="cls-2" d="M73.1,239.93c-.22,1.89-.58,5-1.11,9.32q-.8,6-1.11,9.33,4.59-4.11,18.66-11.54,12.48-6.48,17.55-13a2.36,2.36,0,0,1,1.89-1c-1.37-5-3.9-8.22-7.58-9.81q-3.33-1.57-12.49-3.47-8.22-1.59-12.34-4.27a.5.5,0,0,1-.47-.32,1.34,1.34,0,0,1-.16.63Q74.68,218.74,73.1,239.93Z"/><path class="cls-3" d="M110.09,244a23.8,23.8,0,0,0-.16-4.75q-5.37,6.33-19,13.44-15.33,7.91-19.29,13c.85.1,2.69.47,5.54,1.1a24.48,24.48,0,0,0,5.53.79q9,0,13.91-2.37Q109.78,258.58,110.09,244Z"/><path class="cls-1" d="M182,348.86q9.32-15.18,2.21-39.53a74.58,74.58,0,0,0-9-20.08,52.48,52.48,0,0,0-6.17-8.22,3.64,3.64,0,0,0-1.1-.95,18,18,0,0,0-2.06.64c-1.05-1.9-1.74-3.17-2.05-3.8Q145,288.3,145.19,288.15a29.92,29.92,0,0,1-3.48,1H140.6q4.11,6.94,9.33,22.6,9.81,29.57,1.58,48.07a49.75,49.75,0,0,1-18.65,21.66q8.69-.94,23.24-10Q175.54,359.61,182,348.86Z"/><path d="M359.26,297.16q-2.53,7.59-13,50.43v.16a2.31,2.31,0,0,1-1.74,2.85q1.57-.48-45.21,15.49-1.27.48-21.19,5.85c-3.79,1.47-7.64,2.85-11.54,4.11a37.24,37.24,0,0,1-4.11,1.42,21.5,21.5,0,0,0-2.69,1.27,2.38,2.38,0,0,1-2.37,0c-.95.21-1.79.42-2.53.63q-5.53.94-8.22,0a2,2,0,0,0-.48-.32,2.07,2.07,0,0,1-3-.78q-1.43-2.22-8.7-6.17-2.83-1.59-14.86-7.28-8.06-3.94-11.85-6.32l-.16.16-.95.79a2.48,2.48,0,0,1-4.59-1.11c0-1.68.06-3.37.16-5.06a5.94,5.94,0,0,1-.31-1.89,2.17,2.17,0,0,1,.63-1.59q.48-4.57,2.69-17.23a225,225,0,0,0,2.37-28.14q.31-10.44.63-29.25.15-20.39.48-29.09.63-23.86.47-23.08.32-2.69,2.37-15.49a165.05,165.05,0,0,0,2.06-17.4q.47-8.85-1.43-11.38l-1.89-1a2.14,2.14,0,0,1-1-3,2.3,2.3,0,0,1,2.84-1.43c.11,0,1,.27,2.69.8a25.45,25.45,0,0,1,2.53-1.27,3.81,3.81,0,0,0,.95-.47c-.11-1.79.68-2.58,2.37-2.38q7,.79,22.13-4.26,15.5-5.22,23.09-4.9a24.57,24.57,0,0,1,2.53.15,3.09,3.09,0,0,1,.94.16c1.16.21,2.32.48,3.48.79a30.51,30.51,0,0,0,2.06,2.53q.47.31,16.28,5.06,14.24,4.43,20.08,10.91a2.29,2.29,0,0,1,0,3.16c.95.21,1.79.37,2.53.48a90.09,90.09,0,0,0-5.37,20.07,2.81,2.81,0,0,1,.15.8,91.93,91.93,0,0,1-2.21,18q-3.31,15.18-3.64,18-1.1,7.75-3.16,20.71-2.52,15.81-3.32,20.56a40.46,40.46,0,0,1-.63,4.58,1.73,1.73,0,0,1,.47-.31q2.22-1.43,22.3-6.33c.63-2.21,1.79-2.69,3.47-1.42q5.7,4.26,16.76,8.38,14.07,5.21,17.71,6.95a2.78,2.78,0,0,1,2.21.64l.95.94S359.47,296.21,359.26,297.16Z"/><path class="cls-4" d="M243.84,372.1q.16-16.75,3.64-42.53Q252.22,293,252.86,287q4.74-51.38,4.58-50.12,3.31-20.23,3.32-20.39,1.26-10.92-.79-17.24-6-1.89-17.08-6.48-13.42-5.69-24.66-11.07a21.83,21.83,0,0,1,.32,4.12,115.35,115.35,0,0,1-1.43,17.07c-.31,1.9-.73,4.74-1.26,8.54s-1.11,6.64-1.42,8.53q-.33,2.53-.79,20.72-.17,9.33-.48,29.72-.31,19.44-.63,29.88-.48,19.44-1.74,28.46-3.65,24.51-3.48,23.24l1,1a32.69,32.69,0,0,0,4.43,2.84q3.31,1.76,13.59,6.8,8.86,4.11,13.13,6.64A31.73,31.73,0,0,1,243.84,372.1Z"/><path class="cls-4" d="M223.45,175.89a19.17,19.17,0,0,0-3.64,1.11q10.13,4.91,22,10.12,10.28,4.42,17.7,7c.74.21,1.53.42,2.38.63l.95.31c1.05.32,2.05.59,3,.8a7.46,7.46,0,0,0,2.05.31,1.41,1.41,0,0,0,.64-.16,2,2,0,0,1,2.05-.15q37.63-14.72,35.57-13.28l-.79-.32,1.11.16q-5.54-5.22-19-8.86-14.39-3.79-19.61-7.59a23.07,23.07,0,0,0-3.79-.31q-7,0-19.76,4.58-13,4.74-19.77,4.9l-.31.48Z"/><path class="cls-4" d="M341.55,346.33q9.79-40,10.91-43.64-8.55,2.69-34,9-13.29,3.17-20.08,4.59-7.59,1.43-9.17,0c-.85.42-1.53.74-2.06.95q.31-2.22,2.06-16.76,1.09-10.12,2-16.76,1-6,3.32-20.71,2.06-13.12,3.17-20.71.47-3,3.63-18.5A95.85,95.85,0,0,0,303.76,205c-.42.1-.53.15-.31.15a118.44,118.44,0,0,1,3.95-17.55q-6.33,4-18.34,7.43-14.55,4.13-19,6.17a2.63,2.63,0,0,1-2.37-.16,9.27,9.27,0,0,1-2.22-.31q1.9,8.37-2.68,34-1,4.74-5.06,51.22-.64,7.59-5.38,43.48-3.63,26.57-3.64,43.48a2.11,2.11,0,0,1-.79,1.74q1.91.8,7-.32a51.22,51.22,0,0,0,5.85-1.42,101.46,101.46,0,0,1,15.34-5.38c.84-.31,1.21-.47,1.1-.47-.31-.11-.26-.05.16.16q17.55-4.74,20.71-5.85,39.21-13.61,43.48-15Z"/><path class="cls-5" d="M298.54,290.83q-2.06,1.28-3.16-.95-.15,1.11-2.69,22.46c.43-.11.9-.21,1.43-.32,2-.32,4.37-.79,7.11-1.43q8.22-1.72,19.61-4.58,23.71-5.85,31.46-8.38-3.17-1.58-15.65-6.16a74.49,74.49,0,0,1-15.18-7l-.16.16L298.39,291Z"/><g id="O"><path d="M521.15,248.78q10.9,37.16,12.49,50,3.32,29.73-11.7,48.54-17.4,21.81-44,20.55a17.66,17.66,0,0,0-2.37-.16q-17.4-.32-24,0-24.19,1.59-28.15.95-20.24-3.48-34-23.24-14.7-21.19-20.55-50.59-6.48-32.9,3.16-61.66,1.43-4.42,5.54-14.39a68.83,68.83,0,0,1,5.06-10.44q6.31-9.63,20.39-12.8,18.18-3.94,28.62-4.43,25.45-.94,31.3-2.37a2.37,2.37,0,0,1,2.53,1,2.76,2.76,0,0,1,.32,2.53,2.42,2.42,0,0,1,1.74,1.11q4.89-3.16,15.33.15a44,44,0,0,1,16.76,8.86,41,41,0,0,1,12,17.39Q516.09,231.87,521.15,248.78Zm-70.83,26.56q.17,17.24,5.06,28.93a44.27,44.27,0,0,0,8.06,13.12q8.38-3.47,10.12-15.81,1.26-8.06-2.05-23.08-6.17-27.83-18.66-25.45a2.08,2.08,0,0,1-1.11,0c-.21.84-.42,1.74-.63,2.69Q450.17,261.74,450.32,275.34Z"/><path class="cls-6" d="M449.06,363.09q3.15-.31,7.11-.32a74.81,74.81,0,0,1-23.24-15.49,77.46,77.46,0,0,1-15-21,134.78,134.78,0,0,1-10-25,100.24,100.24,0,0,1-2.69-31q.8-16,3-24.5,10.43-38.1,37.62-50.28-19.29.63-22.92,1.11a155.4,155.4,0,0,0-19.76,3.95q-11.07,2.69-15.34,8.69-5.53,7.75-11.06,25.14a108.85,108.85,0,0,0-5.7,32.1q-.47,30.35,13.44,60.23,13.27,28.62,32.73,35.26Q425.65,364.83,449.06,363.09Z"/><path class="cls-6" d="M482.73,362.93a1.47,1.47,0,0,0-.63-.16H475Q457.76,361,442.1,348.86q-17.4-13.59-28.3-45.22-4.43-13.12-3.79-32.09.47-15.35,3.16-25.3,6.16-22.77,22.29-37.79,13.76-13,30.2-11.38,1.57,2.85,3.95.63,1.89-1.89,8.54-.47a42,42,0,0,1,10.11,3.32A35.08,35.08,0,0,1,505.18,217q1.57,3,5.22,14.07,2.21,6.5,5.22,16.44,5.68,19,9.17,30.83,7.9,27.68,2.05,48.7a47.72,47.72,0,0,1-13.12,22,49.71,49.71,0,0,1-22.61,12.64A54.3,54.3,0,0,1,482.73,362.93Zm-32.41-87.59q.17,17.24,5.06,28.93a44.27,44.27,0,0,0,8.06,13.12q8.38-3.47,10.12-15.81,1.26-8.06-2.05-23.08-6.17-27.83-18.66-25.45a2.08,2.08,0,0,1-1.11,0c-.21.84-.42,1.74-.63,2.69Q450.17,261.74,450.32,275.34Z"/><path d="M501.7,276.92a64.18,64.18,0,0,1,3.64,25.77q-1.27,15-10.75,22.77A21,21,0,0,1,478,330.2a28.4,28.4,0,0,1-16-7.43,7.4,7.4,0,0,1-1.26.16,2.48,2.48,0,0,1-2.06-1.42,2.4,2.4,0,0,1-.16-2.22q-13-15.33-13.12-47,0-13.27,1.11-19,2.21-11.22,10.12-14.7a2.77,2.77,0,0,1,1.58-.16q5.37-4.58,13.44-3.32a21.72,21.72,0,0,1,12.48,6.64q5.07,5.38,10.28,16.92Q499.49,270.44,501.7,276.92Zm-51.38-1.58q.17,17.24,5.06,28.93a44.27,44.27,0,0,0,8.06,13.12q8.38-3.47,10.12-15.81,1.26-8.06-2.05-23.08-6.17-27.83-18.66-25.45a2.08,2.08,0,0,1-1.11,0c-.21.84-.42,1.74-.63,2.69Q450.17,261.74,450.32,275.34Z"/><path class="cls-7" d="M500.44,301.74q.94-13.12-5.38-28.93-4.43-10.76-6.32-14.86-4.42-8.85-7.43-12a18.7,18.7,0,0,0-9.8-5.69q-6.33-1.58-10.44,2.22a2.13,2.13,0,0,1-2.37.63,11.71,11.71,0,0,0-5.06,5.06q16.29-1.11,22.77,29.72,4.26,20.55.79,28.93-4.11,10.13-10,14.07a19.47,19.47,0,0,0,3.48,2.06q10.27,5.22,18.34.47Q499.49,317.4,500.44,301.74Z"/></g><path d="M932.21,157.08a2,2,0,0,1,1.27,1.58q2.21,7.91-9.65,26.88-2.69,4.26-11.22,16.6-7.12,10.44-10.76,16.92-10.27,18-15.17,27-4.11,7.91-5.38,10.28-2.37,4.26-3.32,4.74a2.8,2.8,0,0,1-1.26.32,2.37,2.37,0,0,1,1.11,3.48c.2-.53.52-.48.94.15a28.47,28.47,0,0,0,1.74,3q2.54,3.8,6.48,8.85,5.37,7,15.18,18.81,8.37,10.13,13.76,18,17.7,25.46,24.18,32.25a2.12,2.12,0,0,1,.64,2.37,2.86,2.86,0,0,1-1.74,1.74q-7,8.53-10.91,14.07-4,5.7-6.17,9.17a25.91,25.91,0,0,0-1.89,3.32,3.57,3.57,0,0,0-.48.95v.16A2,2,0,0,1,918.3,380a2.1,2.1,0,0,1-1.27.48q-8.85,1.89-29.25,3.32-10.74.63-16.12,1.42c-1.69.32-4,.84-7,1.58q-5.06,1.26-7,1.58a2.36,2.36,0,0,1-2.53-.95,2.15,2.15,0,0,1,0-2.69q-4.26-6.15-16.75-22.6-5.22,7-14.07,20.55a2.29,2.29,0,0,1-2.69,1.11c-.74-.32-1.74-.79-3-1.43A2.42,2.42,0,0,1,817,383.8a157.92,157.92,0,0,1-27.82,3.32q-16.29.63-22.29-1.58-7.44-3-7.27-11.54,0-4.9,3.47-14.87.16-16-4.9-47.11-4.42-26.08-7.43-38.42-1.59-6-4.27-16.6-3-11.7-4.27-16.76-6-23.4-8.06-35.25a76.73,76.73,0,0,1-1.42-12.34q-.16-5.06,1.73-6.48a1.55,1.55,0,0,1,1.11-.47,2,2,0,0,0-.31-.48,1.81,1.81,0,0,1-.16-2.68q19.29-26.1,25.93-32.26a4.5,4.5,0,0,1,.63-.47,2.43,2.43,0,0,1,1.11-2.06,1.93,1.93,0,0,1,2.53,0q1.26.8,7,1.9,5.53,1.11,12.49,2.06c4.75.63,8.8,1,12.18,1.26a53.61,53.61,0,0,0,7.11.32c1.58-.32,2.53.37,2.85,2.05.42-.84.79-1.63,1.1-2.37a2,2,0,0,1,2.69-1.11,2.33,2.33,0,0,1,2.69.16,2.24,2.24,0,0,1,.95,2.69q-1.9,6.16,1.58,26.24,3.17,18.2,2.69,15.81,2.52,13.29,3.16,19c.53,4.21.79,6.64.79,7.27.63-.84,1.1-1.53,1.42-2.06q2.22-3.15,7.12-10.75,4.58-6.8,7.27-10.59,9-12.81,9.33-15a2.44,2.44,0,0,1,1.58-1.9,2.6,2.6,0,0,1-.63-3.16q3.15-6.65,11.38-14.39,10.9-10.27,13.12-13a1.93,1.93,0,0,1,0-2.53c.74-1.05,1-1.42.79-1.11a2.19,2.19,0,0,1,2.53-1.1,2.46,2.46,0,0,1,1.9,1.74l3.48.16c1.58.21,3.32.36,5.21.47q8.38.8,11.54,1.26,3.48.33,11.07.79a117.94,117.94,0,0,1,13.28,1.27,17.56,17.56,0,0,1,5.85,1.58,2.38,2.38,0,0,1,2.37,0,1.76,1.76,0,0,1,1.27,2.06C932.37,156.66,932.31,156.77,932.21,157.08Z"/><path class="cls-8" d="M885.25,379.05q21-1.41,28.46-2.84a2,2,0,0,1-.63-1.42q-31.62-41.58-38.26-51.23-12.33-18.18-17.71-24.35-10-11.06-9.8-16.44v-.32a2.12,2.12,0,0,1-2.37-1.26,2.46,2.46,0,0,1,.16-3,73.4,73.4,0,0,0,6.64-10.27q4.26-7.74,6.16-10.43Q871.51,238,875.61,230.6a178.49,178.49,0,0,1,16.76-25.93c.73-1,2-2.63,3.79-4.74s3-3.53,3.8-4.59q4.57-5.68,5.53-8.38-6.48-1.1-34.15-1.1a91.89,91.89,0,0,1-14.07-.8,25.72,25.72,0,0,1-4.74-.94.7.7,0,0,1,0,.63q-.48,3.94-9.65,16.76-2.68,3.8-7.74,11.54t-7.91,11.54q-2.06,2.85-8.06,10.75-5.22,6.79-8.07,10.91-8.22,12-14.07,14.54a2.42,2.42,0,0,1-2.84-.63,2.32,2.32,0,0,1-.64-2.53q-5.52-14.38-10.27-38.1a173.67,173.67,0,0,1-3.48-22.77,70.15,70.15,0,0,1,0-9.48h-.16q-6.15-1.11-24.5-1.27-7-.15-12.65,0h-4a9.06,9.06,0,0,0-.95.16q2.37,1.74.16,3.48a2.87,2.87,0,0,0-.16.95,21.77,21.77,0,0,0,0,3.79,106.31,106.31,0,0,0,1.74,11.86q-.17-.31,16.6,68.14,3.32,13.92,7.59,40.95,4.28,27.51,4.42,41.9a2.26,2.26,0,0,1,.32,2.05,1.77,1.77,0,0,0-.32.64c0,1.79-.05,3.32-.15,4.58a2.23,2.23,0,0,1-2.22,2.37,24.21,24.21,0,0,0-1.26,8.85q.32,4.59,7.11,5.85,7.59,1.43,21.51.48a159.15,159.15,0,0,0,22.92-3,2.5,2.5,0,0,1,1.74.32,3.31,3.31,0,0,1,1.26-1.42q-1.58-5.85-5.21-17.39-3.81-11.55-5.38-17.39A151.8,151.8,0,0,1,803.83,321q-.95-10.44,1.58-16.44a2.4,2.4,0,0,1,.48-.63l-.16-.48c-.42-1.47.16-2.42,1.74-2.84a2.17,2.17,0,0,1,3,1.73q4.74,19.31,21,42.22,4.28,6.17,14.39,19.29,9.32,12.33,13.91,19.13,8.85-2.22,10.75-2.53l6.48-1Z"/><path class="cls-8" d="M764.31,153.92Q756.72,161,742,181.11h13.12q18.65.16,25.77,1.43a12.53,12.53,0,0,1,.63-1.59c.63-1.58,1.69-1.84,3.16-.79q15.66-14.07,20.71-22.29l-.31.16a46.19,46.19,0,0,1-8.38-.16q-6.33-.47-13-1.42-8.38-1.11-13.6-2.22a39.56,39.56,0,0,1-5.22-1.26A2.62,2.62,0,0,1,764.31,153.92Z"/><path class="cls-9" d="M808.42,162.14q-4.75,7.28-22.61,23.72a3.48,3.48,0,0,1-1.11.47q-.63,3.64.16,12.65a210.82,210.82,0,0,0,3.8,22.76q4.58,21,9,33,2.69-1.9,11.06-13.6.63-.8,10.44-13.76A2.86,2.86,0,0,1,817,226a2,2,0,0,1,.32-2.53,2.75,2.75,0,0,0,.16-.79,27,27,0,0,0-.16-2.84c-.21-2.22-.58-5.11-1.1-8.7q-.48-2.68-3.17-17.71.32,1.76-2.84-17.23A123,123,0,0,1,808.42,162.14Z"/><path class="cls-10" d="M823.28,375.58q7.11-10.75,12.17-17.39-20.24-26.88-26.88-45.7a45.17,45.17,0,0,0,.32,10.44,157.55,157.55,0,0,0,4.59,20.71q1.41,5.37,4.9,16T823.28,375.58Z"/><path class="cls-9" d="M896,296.05q-10.9-13.44-16.28-20.71-7-9.48-6.32-12.17a83.36,83.36,0,0,1-7.75,8.38q-9,8.68-14.54,7.27h-.48c-.53.74-.9,1.26-1.11,1.58,1.8-.1,2.64.74,2.53,2.53s1.64,4.79,4.91,8.69q1.1,1.42,3.47,4c1.58,1.79,2.74,3.1,3.48,3.95q2.85,3.48,17.39,25,10,14.7,19.92,27.35,1.57,1.9,5.38,6.64,3.31,4.28,5.22,6.8c2.1,2.64,3.74,4.69,4.9,6.17a1.91,1.91,0,0,0,.31.47q1.9-3,5.22-7.75,4.74-6.79,11.86-15.65a4.27,4.27,0,0,1,.31-1.58Q930,341.91,911,315.18,906.6,308.7,896,296.05Z"/><path class="cls-9" d="M925.73,173.36a29.13,29.13,0,0,0,3-7.43,62.29,62.29,0,0,1-4.9,6.65q-10.44,13.28-10.75,13.75a2,2,0,0,1-.63,2.53c-1.06.95-1.53,1.37-1.43,1.26a2.42,2.42,0,0,1-1.73.32q-1.11,2.37-12.18,16a163,163,0,0,0-17.39,26.72q-2.54,4.74-18.34,27.82l-7.9,13.28q3.15-.15,11.06-8.53,1.9-1.74,10.44-12a1.85,1.85,0,0,1,2.53-.47c.73-1.37,1-2,.79-1.74q.94-1.42,4.9-9.17,4.27-8.07,13.75-24.67-.8,1.59,20.56-31.3l6.64-10.28S924.68,175.16,925.73,173.36Z"/><path class="cls-8" d="M877.83,153.92q-2.85,3.79-12.18,12.49-8.22,7.43-11.54,13l.32.16a6.21,6.21,0,0,0,.78.32c.85.21,1.59.37,2.22.47q2.69.31,5.69.48,6,.31,12,.15,22-.47,33.67,1.59a6.53,6.53,0,0,0,.79.31,6.75,6.75,0,0,0,.79-1.11q1.74-2.37,6.64-8.38,8.54-10.43,9.81-14.07a1.83,1.83,0,0,1-1.11-.94c.1.21-.16.21-.79,0-.85-.21-1.58-.37-2.22-.48-1.47-.21-3.32-.42-5.53-.63s-6.17-.47-11.86-.79l-14.7-1.27-10.28-1.1.48.15Z"/><path d="M694.49,58.12a1,1,0,0,1-.06.89,1.17,1.17,0,0,1-.77.58,17.21,17.21,0,0,0-.45,5.13c0,2.56.21,4.14.64,4.74a.76.76,0,0,1,0,1,1,1,0,0,1-1,.39,1.53,1.53,0,0,1-.45.06c-1.84,0-5.06.15-9.68.58a.88.88,0,0,1,.52.83q0,20.82-.64,28a1,1,0,0,1-1,1,71.35,71.35,0,0,0-10.7,1.6.69.69,0,0,1-.32.19,29.72,29.72,0,0,1-3.78,1,.75.75,0,0,1-.83-.12,1.05,1.05,0,0,1-.39-.84l-.06-.25a1.13,1.13,0,0,1-.71-.26,29.83,29.83,0,0,0-5.51-4.16,1,1,0,0,1-.51-1.16,17.32,17.32,0,0,0,.07-4.61,28.74,28.74,0,0,1-.2-4.68,1.54,1.54,0,0,1,.2-.45c0-.51-.09-1.28-.13-2.3s-.07-1.86-.07-2.37q-.12-6.15,1.41-8.59c-3-.25-4.7-.4-5.12-.45a.89.89,0,0,1-1-.7s0-.06-.13-.32a1,1,0,0,1-1.35.38,14.64,14.64,0,0,1-4.87-3.52,7.78,7.78,0,0,1-2.17-3.84,1.49,1.49,0,0,1,.06-.45.28.28,0,0,1-.06-.2,32.32,32.32,0,0,1,1.86-14.92,1,1,0,0,1,.25-.71c.13-.34.26-.66.38-1a.82.82,0,0,1,1.16-.45.93.93,0,0,1,.64,1.09q3-.06,16.46-1.6a70.47,70.47,0,0,1,16.47-.32.77.77,0,0,1,.9-.38.86.86,0,0,1,.77.57c.8.17,1,.62.57,1.35a6.84,6.84,0,0,0,.84,1,33.81,33.81,0,0,0,2.81,2.75q2.82,2.51,5.58,4.62l.45.38S694.53,57.73,694.49,58.12ZM649.77,69a12.19,12.19,0,0,0,3.72,2.56q-.65-2.7-.32-12a.77.77,0,0,1-.58-.9,1,1,0,0,1,.64-.9v-.06q-3.65-4.74-3.65-6.47H649a33.88,33.88,0,0,0-1.34,6,36.9,36.9,0,0,0-.26,7.94,1.32,1.32,0,0,1-.06.39.58.58,0,0,1,.06.26C647.49,66.53,648.28,67.58,649.77,69Zm4-13.91a16.61,16.61,0,0,1,2,2.89q4.56.51,18-.45a102.58,102.58,0,0,1,17.3-.19q-3-2.37-5.13-4.43a18,18,0,0,1-3.27-3.65q.78.13-31.13,1.92C651.48,51.78,652.21,53.08,653.74,55ZM691.48,69a23.23,23.23,0,0,1-.25-4.23,21.51,21.51,0,0,1,.51-5.38q-6.15-.84-17.88.12-12.24,1-17.87.45a1,1,0,0,1-.9.26q-.39,8.64.51,11.72c.6,0,1.65.15,3.14.32,1.28.13,2.31.22,3.08.26,3.07.17,5.21,0,6.4-.45a1,1,0,0,1,1.22,1.15q-.51,1.93-1.86,18.39c-.08.85-.17,1.84-.25,3a.77.77,0,0,1,.32,1q-.71,1.8-.26,6.28l1.73-.38c0-.22-.06-.28-.06-.19a101.51,101.51,0,0,1,11.59-1.86q.65-6.85.64-27a.79.79,0,0,1,.52-.83.89.89,0,0,1-.52-1.09,1,1,0,0,1,1-.83Q689.12,68.94,691.48,69ZM665.66,90.34q1.15-14.59,1.48-16a21.78,21.78,0,0,1-4.88.13,1,1,0,0,1-.25.38q-1.66,1.92-1.35,9.8a41.29,41.29,0,0,1-.06,6.66,42.37,42.37,0,0,1,.19,5.64,25.49,25.49,0,0,1,4.49,3.46,14.16,14.16,0,0,1,.32-4.8,2.21,2.21,0,0,1-.32-.2l.25-2.94S665.58,91.75,665.66,90.34Z"/><path d="M746.45,60.74Q755,75.1,748.37,87a26.88,26.88,0,0,1-18.32,13.71A23.69,23.69,0,0,1,713.84,99a17.21,17.21,0,0,1-9.16-10.38,1.32,1.32,0,0,1-.39-.06q-4.41-1.67-5.83-9.23-1.79-9.48.9-16.53,4.1-10.62,12.81-14.41,12.44-5.44,20.76-1.47,4.88,2.3,12.94,13.39A1,1,0,0,1,746.45,60.74ZM700.77,80.8c.81,2.82,1.92,4.65,3.33,5.51-.09-.56-.15-1.09-.19-1.6q-.7-7.89,3.46-17.37,4.61-10.25,11.28-12l.12-.06a1,1,0,0,1,.64-.71.73.73,0,0,1,1,.26h.33a10.34,10.34,0,0,0,1.08.06c.77,0,1.71,0,2.82-.13l6.47-.32a19.67,19.67,0,0,1,10.32,3.08q-7.3-9.87-15.12-10.19-12.75-.45-19.93,7.62a24.8,24.8,0,0,0-6.6,17.69c.09,3.24.13,4.87.13,4.87ZM748.37,82q2.7-9-3.2-19.48a1,1,0,0,1-.39-.32l-.06-.06a30.83,30.83,0,0,0-9-5,17.56,17.56,0,0,0-6.34-.7q-7.18.38-6.6.38a12.13,12.13,0,0,1-3-.13,1,1,0,0,1-.64.52q-6.93,1.92-11.15,14-4.1,11.73-.83,18.71,4.1,8.65,14.92,9.48A25.1,25.1,0,0,0,738.18,95l7.89-5.25S746.83,87.16,748.37,82ZM727,68.05q6.21-.64,6.73,6.53.57,6.74-3.34,10.38a6.29,6.29,0,0,1-5.25,1.8c-2.22-.35-3.78-1.75-4.68-4.23a11,11,0,0,1,0-7.56q1-2.82,5.64-6A.87.87,0,0,1,727,68.05Zm2.75,14.67a12.37,12.37,0,0,0,2.05-7.5q-.06-5-3.84-5.25v.19a8.79,8.79,0,0,1-1.67,5.51,9.18,9.18,0,0,1-4.48,3.72,8.11,8.11,0,0,0,.57,2.63q1.41,3.45,4.43,2.69A4.8,4.8,0,0,0,729.79,82.72ZM726,71.44a9.76,9.76,0,0,0-3.72,4.42c-.08.39-.17.77-.25,1.16a.17.17,0,0,0,.12.06A7.68,7.68,0,0,0,726,71.44Z"/><path d="M833.46,58.12a1,1,0,0,1-.07.89,1.17,1.17,0,0,1-.77.58,17,17,0,0,0-.44,5.13q0,3.84.63,4.74a.76.76,0,0,1,0,1,1,1,0,0,1-1,.39,1.53,1.53,0,0,1-.45.06q-2.76-.06-9.67.58a.87.87,0,0,1,.51.83q0,20.82-.64,28a1,1,0,0,1-1,1,71.53,71.53,0,0,0-10.7,1.6.69.69,0,0,1-.32.19,29.72,29.72,0,0,1-3.78,1,.75.75,0,0,1-.83-.12,1.07,1.07,0,0,1-.38-.84l-.07-.25a1.1,1.1,0,0,1-.7-.26,30.54,30.54,0,0,0-5.51-4.16,1,1,0,0,1-.51-1.16,17.84,17.84,0,0,0,.06-4.61,27.3,27.3,0,0,1-.19-4.68,1.3,1.3,0,0,1,.19-.45c0-.51-.09-1.28-.13-2.3s-.06-1.86-.06-2.37q-.14-6.15,1.41-8.59-4.49-.37-5.13-.45a.89.89,0,0,1-1-.7s0-.06-.13-.32a1,1,0,0,1-1.34.38,14.64,14.64,0,0,1-4.87-3.52,7.81,7.81,0,0,1-2.18-3.84,1.49,1.49,0,0,1,.06-.45.28.28,0,0,1-.06-.2,32.58,32.58,0,0,1,1.86-14.92,1,1,0,0,1,.25-.71q.19-.51.39-1a.81.81,0,0,1,1.15-.45.93.93,0,0,1,.64,1.09q3-.06,16.47-1.6a70.38,70.38,0,0,1,16.46-.32.77.77,0,0,1,.9-.38.86.86,0,0,1,.77.57c.81.17,1,.62.58,1.35a7.42,7.42,0,0,0,.83,1,34.07,34.07,0,0,0,2.82,2.75q2.82,2.51,5.57,4.62l.45.38ZM788.74,69a12.16,12.16,0,0,0,3.71,2.56q-.65-2.7-.32-12a.77.77,0,0,1-.58-.9,1,1,0,0,1,.65-.9v-.06q-3.66-4.74-3.66-6.47H788a32.94,32.94,0,0,0-1.35,6,36.22,36.22,0,0,0-.25,7.94,1.07,1.07,0,0,1-.07.39.48.48,0,0,1,.07.26C786.45,66.53,787.24,67.58,788.74,69Zm4-13.91a17.19,17.19,0,0,1,2,2.89q4.54.51,18-.45a102.58,102.58,0,0,1,17.3-.19q-3-2.37-5.13-4.43a17.79,17.79,0,0,1-3.26-3.65q.76.13-31.14,1.92C790.45,51.78,791.17,53.08,792.71,55ZM830.44,69a23.23,23.23,0,0,1-.25-4.23,21.51,21.51,0,0,1,.51-5.38q-6.15-.84-17.87.12-12.24,1-17.88.45a1,1,0,0,1-.9.26q-.37,8.64.52,11.72c.59,0,1.64.15,3.14.32,1.28.13,2.3.22,3.07.26,3.08.17,5.21,0,6.41-.45a.68.68,0,0,1,1,.32.71.71,0,0,1,.2.83q-.52,1.93-1.86,18.39c-.09.85-.17,1.84-.26,3a.77.77,0,0,1,.32,1c-.47,1.2-.55,3.29-.26,6.28l1.73-.38c0-.22-.06-.28-.06-.19a101.24,101.24,0,0,1,11.6-1.86q.63-6.85.64-27a.79.79,0,0,1,.51-.83.88.88,0,0,1-.51-1.09,1,1,0,0,1,1-.83Q828.08,68.94,830.44,69ZM804.63,90.34q1.14-14.59,1.47-16a21.66,21.66,0,0,1-4.87.13,1.17,1.17,0,0,1-.26.38q-1.66,1.92-1.34,9.8a40.78,40.78,0,0,1-.07,6.66,43,43,0,0,1,.2,5.64,25.51,25.51,0,0,1,4.48,3.46,14.42,14.42,0,0,1,.32-4.8,2.21,2.21,0,0,1-.32-.2c.17-2,.26-2.94.26-2.94S804.54,91.75,804.63,90.34Z"/><path d="M886.76,52.93q0,15.82-.26,24.15-.25,6.66-.25,12v7.88a3.15,3.15,0,0,0,.06.84V98a.93.93,0,0,1,0,.83.05.05,0,0,0-.06.06.71.71,0,0,1-.71.45c-.51.86-1.6,1.39-3.27,1.6-.34,0-1,.09-2,.13a17.54,17.54,0,0,0-1.79.26c-1.54.34-2.86.6-4,.77a6.26,6.26,0,0,1-2.37.06,1.14,1.14,0,0,1-.52,0,14.57,14.57,0,0,1-3-1.47l-2.11-1.28v2a.91.91,0,0,1-1,1,.85.85,0,0,1-1-1v-.19c-.76.34-3.27.73-7.49,1.15l-3,.32c-.64.09-1.09.15-1.34.2h-.13c-.09.81-.47,1.09-1.16.83s-1.62-.56-3.07-1a30.57,30.57,0,0,1-3.08-1q-3.39-1.47-3.78-2.63a1.1,1.1,0,0,1,.07-.64,1,1,0,0,1-.19-.83,50.24,50.24,0,0,0,.38-11.15q-.51-10-.51-11.21.06-3.72.83-12.49a116.18,116.18,0,0,0,.58-12.5.9.9,0,0,1,.57-.89,1.08,1.08,0,0,1-.12-.45c-.09-.6.19-.92.83-1a1,1,0,0,1,1.09.83,43.56,43.56,0,0,1,5.06-.58,30.82,30.82,0,0,0,5-.7.82.82,0,0,1,.7-.84.91.91,0,0,1,1.09.39.74.74,0,0,1,.9.38,1,1,0,0,1,.06,1A27.83,27.83,0,0,0,861.32,51l1.35,1c0-.39,0-2,.13-4.87a1,1,0,0,1-.26-1.09.85.85,0,0,1,.9-.64,28.54,28.54,0,0,0,5.12-.45c2.44-.34,4.1-.56,5-.64a1,1,0,0,1,1-.45,1,1,0,0,1,1,.64,7.3,7.3,0,0,0,2.12,1.73c1.45,1,2.24,1.5,2.37,1.54a27.13,27.13,0,0,1,5.12,4.35h.2a1.07,1.07,0,0,1,1-.06A.92.92,0,0,1,886.76,52.93ZM851.39,65.55a32.68,32.68,0,0,1,1.09-9.23.86.86,0,0,1-.9,0,29.14,29.14,0,0,1-5.25-3.46c-.85-.68-1.43-1.17-1.73-1.47q0,4-.7,12.36a121.45,121.45,0,0,0-.71,12.31q.25,20.75.07,21.65a.93.93,0,0,1,.83,1.28c-.17-.13.19,0,1.09.45.68.3,1.45.6,2.3.9q4,1.27,3.27,1a.49.49,0,0,1-.06-.19,22.45,22.45,0,0,1,.19-3q.32-3.64.45-5.13a147.93,147.93,0,0,0,.58-14.86Q851.46,64.34,851.39,65.55Zm1.16-10.89A.76.76,0,0,1,853,55q-.06.14,0-.06a.75.75,0,0,1,1-.45,1.2,1.2,0,0,1,.83.83c.55.26,2.33.22,5.32-.12a24.66,24.66,0,0,1,3.65-.2c-.39-.3-1.16-.83-2.31-1.6-1-.64-1.75-1.17-2.3-1.6a16.87,16.87,0,0,1-3.08-2.63,26.6,26.6,0,0,1-4.74.77c-2.61.22-4.21.36-4.81.45.6.55,1.2,1.07,1.8,1.54A32.07,32.07,0,0,0,852.55,54.66Zm31.9,23.51q.39-8.83.39-23.9a.79.79,0,0,1-.58-.25,49.73,49.73,0,0,1-5.38.45,14.1,14.1,0,0,1-4.61-.13l-.13.32a7.57,7.57,0,0,1-.07,1c0,.81,0,1.71,0,2.69,0,.38,0,1.15.13,2.31,0,.94.07,1.68.07,2.24s0,1.41.06,2.56.13,2,.13,2.5c0,2.09-.28,3.48-.84,4.16a.41.41,0,0,1-.19.2.86.86,0,0,1-.7.32l-5,.12v.13a1,1,0,1,1-1.92,0c0,.17,0,.07-.07-.32a.93.93,0,0,1-.83-1,.9.9,0,0,1,.83-1c0-.56-.12-1.69-.25-3.4-.09-1.45-.15-2.6-.2-3.46a29.36,29.36,0,0,1,.33-6.34h0q-1.54-.51-7,0a13.05,13.05,0,0,1-4.42-.06q-1,2.94-.77,9.86,0,2,.2,5.83t.32,5.83q.06,4.74-.65,14.22c-.08,1.16-.23,2.87-.44,5.13-.13,1.07-.19,1.73-.19,2,0,.55,0,.76,0,.64a5.87,5.87,0,0,0,.83-.07l.83-.06c1.67-.17,3-.3,4.16-.39q4.17-.31,5.51-1.08a1,1,0,0,1,.45-.13q0-1.49-.38-6.28c-.34-4.32-.07-7,.83-8a.88.88,0,0,1,1-.83c1.11,0,3.08-.2,5.9-.45a.86.86,0,0,1,1.28.13,1,1,0,0,1,0,1.41s0,0,0,.12v.77c0,.51,0,1,.06,1.41.09.9.22,2.07.38,3.53q.19,1.53.2,9a.61.61,0,0,1-.07.32h.07c.6-.08,1.19-.19,1.79-.32.26,0,.68-.13,1.28-.26a12.77,12.77,0,0,1,1.35-.25c-.09,0,.92-.15,3-.45a7.77,7.77,0,0,0,2.76-.58.78.78,0,0,1,.38-.38V83.49S884.33,81.72,884.45,78.17ZM864.72,50a7.56,7.56,0,0,0,.32,2.89,1.08,1.08,0,0,1,.13.7c.38.3.64.49.77.58a.92.92,0,0,1,.38.9,1,1,0,0,1,1.35-.45.73.73,0,0,1,.51,1.09q-1.09,2.69-.9,8.33c.05.77.11,1.85.19,3.26s.2,2.57.2,3.21h3.26q0-.14-.06.12.64-.06,1.41-.06a5.53,5.53,0,0,0,.19-2c0-.85,0-1.87-.06-3.07,0-.56-.09-1.3-.13-2.24s0-1.78-.07-2.25c-.12-2.64-.17-4.46-.12-5.44,0-.73.08-1.22.12-1.48q.64.39-5.18-3.39c-1.07-.73-1.84-1.28-2.31-1.67Zm9.48-3.77a27.13,27.13,0,0,0-4.29.44c-2.09.3-3.52.5-4.29.58a8,8,0,0,0,1.66,1.22c.94.64,1.52,1,1.73,1.15a35.44,35.44,0,0,0,4.3,2.88.43.43,0,0,1,.38-.06.36.36,0,0,1,.25-.13c.56-.43,1-.32,1.48.32l2.43-.06c.77,0,1.6-.13,2.5-.26l2.12-.19a30.21,30.21,0,0,0-4.62-3.46,17.09,17.09,0,0,1-3.46-2.5A.56.56,0,0,1,874.2,46.27Zm-2.56,53.11a89.07,89.07,0,0,0-.26-9.74,29.15,29.15,0,0,1-.38-4c-1.84.17-3.29.26-4.36.26-.68.51-1,1.84-.83,4,0,1,.15,2.52.32,4.49.13,1.28.21,2.24.26,2.88a.84.84,0,0,1,1,.38l.13.13.57.38c.56.35,1.12.67,1.67,1,.73.38,1.24.66,1.54.83s.4.19.32.19c0-.3-.07-.36-.07-.19v-.51Z"/><path d="M936,91.11a.85.85,0,0,1,1.21.32.77.77,0,0,1-.06,1.22q-.7.7-2.37,2.43c-1,1.07-1.78,1.88-2.37,2.44q-3.86,3.47-3.85,3.39a.75.75,0,0,1-.83.52c-.73.51-1.22.4-1.47-.32h-.13q-1.41-.45-12.49.06-9.61.45-14.48.19a1,1,0,0,1-1-1,13.36,13.36,0,0,1,.51-5.19,28.67,28.67,0,0,1,.07-4.93c.3-2.78.45-4.4.45-4.87q.31-7.25.89-13.33.84-7.56.9-13.07.19-8.13,1-10.95a1,1,0,0,1-.51-.77.88.88,0,0,1,.45-.9,10.31,10.31,0,0,0,2.18-1.6,22.86,22.86,0,0,1,2.11-1.66A27.68,27.68,0,0,1,909.89,41c1.7-.94,2.94-1.67,3.71-2.18a.81.81,0,0,1,1,0,.9.9,0,0,1,.9-.64l10.12.7c2.82.22,4.53.39,5.13.52l.83.19a8.44,8.44,0,0,1,.84.13c.46.12.7.17.7.12a1,1,0,0,1,.83.26.17.17,0,0,1,.13.07.63.63,0,0,0,.26-.07,1.21,1.21,0,0,1,.38-.06c0-.09,0-.11,0-.07a1,1,0,0,1,1.35-.64.77.77,0,0,1,.57,1.15,15,15,0,0,0-.51,5.39,31.24,31.24,0,0,0,.32,3.78.94.94,0,0,1,.7.64,1,1,0,0,1-.19,1h-.06c0,.86-.38,1.22-1.16,1.09-.29.26-1.43,1.11-3.39,2.56-1.24.86-2.07,1.48-2.5,1.86a7.16,7.16,0,0,0-1.41,1.41,1,1,0,0,1-1.15.64c-.3.69-.75.83-1.35.45a7.6,7.6,0,0,0-2.69-.9c-.38.39-.44,1.18-.19,2.37.38,0,1.07.11,2.05.2s1.54.12,2,.12a18,18,0,0,0,3.27,0,1,1,0,0,1,1.28-.51.75.75,0,0,1,1.22.32,1,1,0,0,1-.26,1.41l-.64.39a17.66,17.66,0,0,0-.13,4.48,36.66,36.66,0,0,0,.64,5.19,1,1,0,0,1-.32,1,1.15,1.15,0,0,1-1,.19c-.72.72-3.27,2.69-7.62,5.89a.75.75,0,0,1-.83.13.78.78,0,0,1-.33.19,1.37,1.37,0,0,1-.25.64c-.18.17-.18.6,0,1.28l.06.33q9.62.26,11.21-.26a.83.83,0,0,1,1.16.57,1,1,0,0,1,1.21-.19.79.79,0,0,1,.52,1.09c-.47,1.37-.71,2-.71,2Zm-9.68,8c0-.47.09-2,.13-4.55a24.85,24.85,0,0,1,.32-4.48,1.18,1.18,0,0,1-.51-.39H914.12a.58.58,0,0,1-.26-.06.85.85,0,0,1-1-1c0-.9-.11-2.44-.19-4.61-.13-2-.2-3.51-.2-4.62a1.65,1.65,0,0,1-1-.7.87.87,0,0,1,.32-1.41,1.8,1.8,0,0,1,.38-.13c.21-.09.24-.09.07,0a1,1,0,0,1,.7-.13.89.89,0,0,1,1-.19.8.8,0,0,1,.64.83,7,7,0,0,0,1-.06c.3,0,.7,0,1.22-.07a8.14,8.14,0,0,0,1.15-.06,12.29,12.29,0,0,1,3.91.32c0-.68-.07-1.77-.2-3.27s-.12-2.5-.12-3.27a13.71,13.71,0,0,1,.06-2.62c-2,0-3.35,0-4.17-.13a12.3,12.3,0,0,1-3.32-.45.77.77,0,0,1-1-.38,1.8,1.8,0,0,1-.38-.13s0-.06-.07-.06a.16.16,0,0,0-.13-.07c-.6-.38-.66-.87-.19-1.47V65a14.32,14.32,0,0,0,0-1.86c0-.68,0-1.53-.06-2.56a12,12,0,0,1,.06-2.24,1,1,0,0,1-.19-1,.91.91,0,0,1,.9-.65h.13a1,1,0,0,1,1.28-.06q9.67-.57,12.17.83a1.6,1.6,0,0,1,.32-.45q-1-.06-1-1V49.53c-.56-.17-4.14-.42-10.77-.77-6.36-.3-10.14-.4-11.34-.32Q903.23,50.56,903,60c-.18,4-.49,8.22-1,12.62-.22,2.17-.5,6.45-.84,12.81q-.51,10.19-.57,9.29a.92.92,0,0,1,.06.77,2.64,2.64,0,0,1-.19.51,10.2,10.2,0,0,0-.39,3.46q5.38.19,14.1-.25Q924.62,98.6,926.35,99.12ZM906.94,45c-.3.22-.88.71-1.73,1.48,1.32-.05,3.12,0,5.38.12,2.73.18,4.55.26,5.45.26q8.33.19,10.31.71c2.39-2.52,3.78-4,4.17-4.36.12-.13.34-.36.64-.71s.59-.61.77-.83l-.9-.25a38.73,38.73,0,0,0-4.94-.58l-10.63-.77A1.53,1.53,0,0,1,915,40a.77.77,0,0,1-.38.51q-1.1.7-3.91,2.18A30.12,30.12,0,0,0,906.94,45ZM921.1,61a6,6,0,0,1,0-2.75h-1.73l-2.56.19c-1.16.08-2,.13-2.57.13a7.42,7.42,0,0,0,0,2c0,.73.07,1.58.07,2.56v2.63c3.8-2.09,6-3.44,6.47-4A1.2,1.2,0,0,1,921.1,61Zm-.64,22.17a5.31,5.31,0,0,0-.2-1.09,5,5,0,0,1-.19-1.16,3,3,0,0,1,.32-1.34q-.25-.06-4.8.06a9.79,9.79,0,0,0-1.09.07q0,.83.25,6.6a11.57,11.57,0,0,0,3.53-2A9.11,9.11,0,0,1,920.46,83.17ZM923,84a.94.94,0,0,1-.89.77,12.86,12.86,0,0,0-4,2.11,8.05,8.05,0,0,1-1.41.84h10.44a16.55,16.55,0,0,1,4.23-3.53C930.66,84.28,927.87,84.21,923,84Zm.13-21.27a1.09,1.09,0,0,1-1.09.51,23.24,23.24,0,0,1-5.25,3.4h1.8c.34,0,1.57.06,3.71.06a1.87,1.87,0,0,1,.45-.51.89.89,0,0,1,1-.19,19.58,19.58,0,0,1,2.11-1.48L928,63.11l-.51-.06c-.51,0-1.24,0-2.18-.13l-1.53-.13Zm6.73,1.47q-5.89,4.42-5.7,4.23a1.09,1.09,0,0,1-.58.32,28.3,28.3,0,0,0,0,3.91c0,.47.05,1.18.13,2.11s.13,1.65.13,2.12a53.52,53.52,0,0,0,6.6-5.25,36.16,36.16,0,0,1-.52-4.49C929.83,65.83,929.81,64.85,929.81,64.2Zm4.36-21.91q-.2.14-2.76,2.76c-.55.6-1.54,1.64-2.95,3.14a1,1,0,0,1-.51,1.66q-.06.9,0,5.9a28.39,28.39,0,0,1,2.5-1.92c2.61-1.93,4-3,4.23-3.21a19.41,19.41,0,0,1-.58-4.8C934.1,44.19,934.13,43,934.17,42.29Zm-3.08,53.82c.43-.43,1.45-1.49,3.08-3.2a.24.24,0,0,1-.07-.13c0-.34-.06-1.62-.19-3.85a27.87,27.87,0,0,1,0-3.9,14.92,14.92,0,0,0-4.61,3.2.27.27,0,0,1-.06.19q-.65,1.86-.84,9.67c.22-.17.66-.48,1.35-1A14.75,14.75,0,0,0,931.09,96.11Z"/><g id="C"><path d="M727.31,186.65c.63,1.47.48,2.63-.47,3.47a15.37,15.37,0,0,1-2.37,1.74q.78,3.48-9.33,13.76a88.77,88.77,0,0,0-16.92,24.66,2.27,2.27,0,0,1-2.69,1.26,3.31,3.31,0,0,1-2.37-2l-.16-.32a2.81,2.81,0,0,1-.94.16q-19.77.48-22.46,1.27c-1.89.53-3.05-.11-3.47-1.9q-.79-5.37-6.48-11.86a17.57,17.57,0,0,0-1.9,4.11,2,2,0,0,1-1,1.43q-2.85,6-5.38,34-2.83,31-2.21,41.74a48.5,48.5,0,0,0,1.42,9.64q4.59-3.79,10.6-23.4a2.48,2.48,0,0,1,3.32-1.9c1.79.43,2.52,1.43,2.21,3a2.34,2.34,0,0,0,.47.63q1.59,2.69,13.6,7a52.47,52.47,0,0,1,10.59,5.07,3,3,0,0,1,2.85-.16,2.11,2.11,0,0,1,1.26,2.37q-.15,2.06,10,6.48a67.13,67.13,0,0,0,13,4.43q2.52.63,1.74,3.32a3.12,3.12,0,0,1,2.37,1.27,2,2,0,0,1-.16,2.68q-25.6,35.73-39,42.38-31.3,15.8-59.92,3a3.71,3.71,0,0,1-1.11.16q-26.24-2.7-43.32-12.33-20.87-11.86-26.71-34.32-5.55-21.33.15-61.34Q558,217.8,573,190.44a264.12,264.12,0,0,1,15.81-25.61Q598,151.71,607,147.44q8.37-4.11,29.4-3.64,21.51.31,35.58,3.16a2.15,2.15,0,0,1,1.89,2.69q16.75-.63,31.62,10.75Q718.78,170.21,727.31,186.65Z"/><path class="cls-11" d="M568.9,337q14.7,15.33,43.63,20.08-25.93-21.49-18-80.48,1.1-8.37,2.53-24.82,1.26-16.59,2.37-24.66,4.11-31.45,18.5-44.11a2.23,2.23,0,0,1,1.1-.63q6.65-10.27,20.24-19.45,13.13-8.85,24.66-11.7-12.48-1.89-33.35-1.89-12.81-.17-17.55,1.58a32.78,32.78,0,0,0-11.7,7.43q-6,6-16.13,22.29a204.61,204.61,0,0,0-15.33,29.25q-11.55,29.4-14.39,69.88Q552.61,320.08,568.9,337Z"/><path class="cls-11" d="M720.2,188.07a4.69,4.69,0,0,0,1.11-.63q-8.7-15.66-21.35-24.35-14.87-10.28-30.51-7.43-14.07,2.68-28.46,12.81-15.33,10.74-20.24,22.6c-.84,1.8-2.11,2.11-3.79,1q-8.22,10.75-11.38,31.46-1.27,8.07-2.22,21.35-1.26,16.13-1.9,21.34-3.78,34.47-2.68,47.27,3,30.68,20.71,42.06,12.81,8.07,30.35,8.06a66.56,66.56,0,0,0,30.68-7.43q13.28-7,36.51-39.53h-.15a70.73,70.73,0,0,1-16.6-6.16,37.68,37.68,0,0,1-7.28-4.27,28.76,28.76,0,0,1-9.16,14.39A25.47,25.47,0,0,1,668,326.88a22,22,0,0,1-15.66-5.53q-6.17-5.53-7.75-14.86-2.21-12.81,1-47T652.69,218a2.34,2.34,0,0,1,.47-.63,39.91,39.91,0,0,1,3.48-6.17,3.21,3.21,0,0,1,1-1.11q10.44-13.42,22.29-8.69,9.33,3.79,16.28,20.71a74.88,74.88,0,0,1,11.55-16.92q8.22-8.37,7.27-7.27,2.37-2.69,3.16-3.64.79-1.26,1.11-.63a2.17,2.17,0,0,1-.16-2.37A2.52,2.52,0,0,1,720.2,188.07Z"/><path class="cls-12" d="M664.86,291.94q-4.59,15.81-12,21.19a13.79,13.79,0,0,0,10.28,7.74,19.7,19.7,0,0,0,16.28-3.95,21.67,21.67,0,0,0,8.85-14.39q-3-2-12-4.9Q668.18,294.94,664.86,291.94Z"/><path class="cls-12" d="M670.87,224.59q3-.63,20.08-.79-5.22-13-11.54-16.44-8.22-4.59-16.44,4.9Q669.28,219.37,670.87,224.59Z"/></g></g></g></svg>